<svg width="18" height="18" viewBox="0 0 18 18" fill="none" xmlns="http://www.w3.org/2000/svg">
<path d="M0.9 2.925V2.025C0.402943 2.025 0 2.42795 0 2.925H0.9ZM17.1 2.925H18C18 2.42795 17.5971 2.025 17.1 2.025V2.925ZM17.1 17.1V18C17.5971 18 18 17.5971 18 17.1H17.1ZM0.9 17.1H0C0 17.5971 0.402943 18 0.9 18V17.1ZM0.9 7.0875C0.402943 7.0875 0 7.49045 0 7.9875C0 8.48456 0.402943 8.8875 0.9 8.8875V7.0875ZM17.1 8.8875C17.5971 8.8875 18 8.48456 18 7.9875C18 7.49045 17.5971 7.0875 17.1 7.0875V8.8875ZM12.15 4.95C12.15 5.44705 12.5529 5.85 13.05 5.85C13.5471 5.85 13.95 5.44705 13.95 4.95H12.15ZM13.95 0.9C13.95 0.402943 13.5471 0 13.05 0C12.5529 0 12.15 0.402943 12.15 0.9H13.95ZM4.05 4.95C4.05 5.44705 4.45295 5.85 4.95 5.85C5.44705 5.85 5.85 5.44705 5.85 4.95H4.05ZM5.85 0.9C5.85 0.402943 5.44705 0 4.95 0C4.45295 0 4.05 0.402943 4.05 0.9H5.85ZM0.9 3.825H17.1V2.025H0.9V3.825ZM16.2 2.925V17.1H18V2.925H16.2ZM17.1 16.2H0.9V18H17.1V16.2ZM1.8 17.1V2.925H0V17.1H1.8ZM0.9 8.8875H17.1V7.0875H0.9V8.8875ZM13.95 4.95V0.9H12.15V4.95H13.95ZM5.85 4.95V0.9H4.05V4.95H5.85Z" fill="#40BFFF"/>
</svg>
