<svg width="24" height="18" viewBox="0 0 24 18" fill="none" xmlns="http://www.w3.org/2000/svg">
<path d="M22.0004 1.0796L22.9849 0.904434C22.903 0.443775 22.5125 0.101529 22.0451 0.0805989L22.0004 1.0796ZM23 6.69818L23.9878 6.85401C24.0051 6.74426 24.004 6.6324 23.9845 6.52301L23 6.69818ZM21.3748 17V18C21.8669 18 22.2858 17.6419 22.3625 17.1558L21.3748 17ZM20.25 17L19.2608 17.1465C19.3334 17.6368 19.7543 18 20.25 18V17ZM18.875 7.7131L19.8642 7.56664C19.803 7.15312 19.491 6.82132 19.082 6.73477C18.6731 6.64822 18.2534 6.82519 18.0299 7.17846L18.875 7.7131ZM12.9996 17V18C13.3425 18 13.6614 17.8244 13.8447 17.5346L12.9996 17ZM2.92913 17V16H2.92788L2.92913 17ZM1.79475 13.6342L1.22068 12.8154L1.22034 12.8156L1.79475 13.6342ZM6.60312 10.263V9.26302C6.3977 9.26302 6.19726 9.32628 6.02906 9.44421L6.60312 10.263ZM19.0005 1.0796C19.0005 1.59094 18.6411 1.84765 18.5565 1.90256C18.443 1.97626 18.3452 2.00433 18.3249 2.01024C18.2696 2.02633 18.2437 2.02644 18.2836 2.02197C18.3472 2.01486 18.4671 2.00784 18.6479 2.00379C18.9996 1.99591 19.4814 2.00107 19.9781 2.01219C20.4713 2.02323 20.9659 2.03983 21.3381 2.05372C21.524 2.06066 21.6788 2.06689 21.787 2.07139C21.841 2.07364 21.8834 2.07545 21.9122 2.0767C21.9266 2.07732 21.9376 2.0778 21.9449 2.07812C21.9485 2.07829 21.9513 2.07841 21.9531 2.07849C21.954 2.07853 21.9547 2.07856 21.9551 2.07858C21.9553 2.07859 21.9555 2.07859 21.9555 2.0786C21.9556 2.0786 21.9556 2.0786 21.9556 2.0786C21.9557 2.0786 21.9556 2.0786 22.0004 1.0796C22.0451 0.080599 22.0451 0.0805969 22.045 0.0805949C22.045 0.0805929 22.0449 0.0805899 22.0448 0.0805869C22.0447 0.0805799 22.0445 0.0805709 22.0442 0.0805589C22.0437 0.0805339 22.0429 0.0804989 22.0419 0.0804539C22.0398 0.0803629 22.0368 0.0802309 22.0329 0.0800589C22.0251 0.0797139 22.0136 0.0792109 21.9987 0.0785659C21.9689 0.0772749 21.9253 0.0754139 21.8701 0.0731149C21.7595 0.0685179 21.6018 0.0621639 21.4127 0.0551069C21.0349 0.0410109 20.5296 0.0240299 20.0228 0.0126839C19.5195 0.00141589 19.0013 -0.00462411 18.6031 0.00428889C18.4088 0.00863789 18.2163 0.0170079 18.0611 0.0343829C17.9917 0.0421569 17.8798 0.0567829 17.766 0.0899239C17.7164 0.104364 17.5961 0.141595 17.4674 0.225118C17.3677 0.289859 17.0005 0.557062 17.0005 1.0796H19.0005ZM21.0158 1.25476L22.0155 6.87334L23.9845 6.52301L22.9849 0.904434L21.0158 1.25476ZM22.0122 6.54234L20.387 16.8442L22.3625 17.1558L23.9878 6.85401L22.0122 6.54234ZM21.3748 16H20.25V18H21.3748V16ZM21.2392 16.8535L19.8642 7.56664L17.8858 7.85956L19.2608 17.1465L21.2392 16.8535ZM18.0299 7.17846L12.1545 16.4654L13.8447 17.5346L19.7201 8.24774L18.0299 7.17846ZM12.9996 16H2.92913V18H12.9996V16ZM2.92788 16C2.38219 16.0007 2 15.5818 2 15.14H0C0 16.7519 1.34481 18.002 2.93037 18L2.92788 16ZM2 15.14C2 14.8795 2.12911 14.6212 2.36916 14.4527L1.22034 12.8156C0.462144 13.3476 0 14.2091 0 15.14H2ZM2.36882 14.453L7.17719 11.0818L6.02906 9.44421L1.22068 12.8154L2.36882 14.453ZM6.60312 11.263C9.69962 11.263 12.7686 9.82455 15.0459 7.91284C17.2875 6.03109 19.0005 3.4813 19.0005 1.0796H17.0005C17.0005 2.61289 15.8163 4.65482 13.76 6.38103C11.7394 8.07727 9.10975 9.26302 6.60312 9.26302V11.263Z" fill="#40BFFF"/>
</svg>
