<svg width="18" height="17" viewBox="0 0 18 17" fill="none" xmlns="http://www.w3.org/2000/svg">
<path d="M14.175 7.38727C14.175 10.5303 11.414 13.0937 7.9875 13.0937V14.7745C12.3897 14.7745 15.975 11.4757 15.975 7.38727H14.175ZM7.9875 13.0937C4.56104 13.0937 1.8 10.5303 1.8 7.38727H0C0 11.4757 3.58532 14.7745 7.9875 14.7745V13.0937ZM1.8 7.38727C1.8 4.2442 4.56104 1.68077 7.9875 1.68077V0C3.58532 0 0 3.29885 0 7.38727H1.8ZM7.9875 1.68077C11.414 1.68077 14.175 4.2442 14.175 7.38727H15.975C15.975 3.29885 12.3897 0 7.9875 0V1.68077Z" fill="#9098B1"/>
<path d="M13.6828 11.4663C13.3295 11.1399 12.7596 11.1428 12.4101 11.4728C12.0605 11.8027 12.0636 12.3348 12.417 12.6612L13.6828 11.4663ZM16.467 16.4023C16.8203 16.7287 17.3902 16.7258 17.7397 16.3959C18.0893 16.0659 18.0862 15.5338 17.7328 15.2074L16.467 16.4023ZM12.417 12.6612L16.467 16.4023L17.7328 15.2074L13.6828 11.4663L12.417 12.6612Z" fill="#9098B1"/>
</svg>
