<svg width="14" height="18" viewBox="0 0 14 18" fill="none" xmlns="http://www.w3.org/2000/svg">
<path d="M6.74869 8.36628C5.86284 8.36628 5.14458 7.62409 5.14458 6.70871H3.40265C3.40265 8.6182 4.90079 10.1663 6.74869 10.1663V8.36628ZM5.14458 6.70871V3.45757H3.40265V6.70871H5.14458ZM5.14458 3.45757C5.14458 2.54219 5.86284 1.8 6.74869 1.8V0C4.90079 0 3.40265 1.54808 3.40265 3.45757H5.14458ZM6.74869 1.8C7.63454 1.8 8.35279 2.54219 8.35279 3.45757H10.0947C10.0947 1.54808 8.59659 0 6.74869 0V1.8ZM8.35279 3.45757V6.70871H10.0947V3.45757H8.35279ZM8.35279 6.70871C8.35279 7.62409 7.63454 8.36628 6.74869 8.36628V10.1663C8.59659 10.1663 10.0947 8.6182 10.0947 6.70871H8.35279Z" fill="#9098B1"/>
<path d="M7.62096 14.0625C7.62096 13.5654 7.23102 13.1625 6.75 13.1625C6.26897 13.1625 5.87903 13.5654 5.87903 14.0625H7.62096ZM5.87903 17.1C5.87903 17.5971 6.26897 18 6.75 18C7.23102 18 7.62096 17.5971 7.62096 17.1H5.87903ZM5.87903 14.0625V17.1H7.62096V14.0625H5.87903Z" fill="#9098B1"/>
<path d="M1.74194 6.975C1.74194 6.47794 1.35199 6.075 0.870968 6.075C0.389945 6.075 0 6.47794 0 6.975H1.74194ZM13.5 6.975C13.5 6.47794 13.1101 6.075 12.629 6.075C12.148 6.075 11.7581 6.47794 11.7581 6.975H13.5ZM0 6.975C0 10.8275 3.0218 13.95 6.75 13.95V12.15C3.98383 12.15 1.74194 9.83337 1.74194 6.975H0ZM6.75 13.95C10.4782 13.95 13.5 10.8275 13.5 6.975H11.7581C11.7581 9.83337 9.51617 12.15 6.75 12.15V13.95Z" fill="#9098B1"/>
</svg>
