<svg width="15" height="20" viewBox="0 0 15 20" fill="none" xmlns="http://www.w3.org/2000/svg">
<path d="M7.5 19.0909L6.85909 19.7157C7.02574 19.8972 7.25753 20 7.5 20C7.74247 20 7.97426 19.8972 8.14091 19.7157L7.5 19.0909ZM13.2353 7.97955C13.2353 8.73013 12.9046 9.75202 12.3014 10.9428C11.711 12.1084 10.9137 13.3323 10.1011 14.457C9.29076 15.5785 8.47841 16.583 7.86761 17.3082C7.56261 17.6703 7.30887 17.9615 7.13207 18.1615C7.04369 18.2615 6.97459 18.3385 6.92801 18.3901C6.90472 18.4159 6.88706 18.4354 6.87544 18.4482C6.86963 18.4545 6.86533 18.4593 6.86259 18.4623C6.86121 18.4637 6.86023 18.4648 6.85965 18.4655C6.85936 18.4658 6.85916 18.466 6.85907 18.4661C6.85902 18.4662 6.85902 18.4662 6.85901 18.4662C6.85903 18.4662 6.85909 18.4661 7.5 19.0909C8.14091 19.7157 8.14102 19.7156 8.14115 19.7155C8.14122 19.7154 8.14138 19.7152 8.14153 19.7151C8.14184 19.7147 8.14226 19.7143 8.14277 19.7137C8.14378 19.7126 8.14519 19.7111 8.14701 19.7091C8.15063 19.7051 8.15582 19.6995 8.16252 19.6921C8.17594 19.6774 8.19545 19.6558 8.22063 19.6279C8.27098 19.5721 8.34407 19.4905 8.43664 19.3859C8.62173 19.1765 8.88499 18.8743 9.20041 18.4998C9.83038 17.7519 10.6725 16.7109 11.5166 15.5427C12.3583 14.3778 13.2154 13.068 13.8659 11.784C14.5035 10.5253 15 9.1818 15 7.97955H13.2353ZM7.5 19.0909C8.14091 18.4661 8.14097 18.4662 8.141 18.4662C8.14098 18.4662 8.14098 18.4662 8.14093 18.4661C8.14083 18.466 8.14064 18.4658 8.14035 18.4655C8.13977 18.4648 8.13879 18.4637 8.13741 18.4623C8.13467 18.4593 8.13037 18.4545 8.12456 18.4482C8.11294 18.4354 8.09528 18.4159 8.07199 18.3901C8.02541 18.3385 7.95631 18.2615 7.86793 18.1615C7.69113 17.9615 7.43739 17.6703 7.13239 17.3082C6.52159 16.583 5.70924 15.5785 4.89894 14.457C4.08626 13.3323 3.28899 12.1084 2.69859 10.9428C2.09541 9.75202 1.76471 8.73013 1.76471 7.97955H0C0 9.1818 0.496504 10.5253 1.13413 11.784C1.78454 13.068 2.64169 14.3778 3.48341 15.5427C4.32753 16.7109 5.16958 17.7519 5.79959 18.4998C6.11501 18.8743 6.37826 19.1765 6.56336 19.3859C6.65593 19.4905 6.72902 19.5721 6.77937 19.6279C6.80456 19.6558 6.82406 19.6774 6.83748 19.6921C6.84418 19.6995 6.84937 19.7051 6.853 19.7091C6.85481 19.7111 6.85622 19.7126 6.85723 19.7137C6.85774 19.7143 6.85816 19.7147 6.85847 19.7151C6.85862 19.7152 6.85878 19.7154 6.85885 19.7155C6.85898 19.7156 6.85909 19.7157 7.5 19.0909ZM1.76471 7.97955C1.76471 4.54456 4.36207 1.81818 7.5 1.81818V0C3.32764 0 0 3.60316 0 7.97955H1.76471ZM7.5 1.81818C10.6378 1.81818 13.2353 4.5456 13.2353 7.97955H15C15 3.6044 11.6725 0 7.5 0V1.81818Z" fill="#40BFFF"/>
<path d="M8.32387 6.81817C8.32387 7.81139 7.54616 8.5909 6.61799 8.5909C5.68983 8.5909 4.91211 7.81139 4.91211 6.81817C4.91211 5.82494 5.68983 5.04544 6.61799 5.04544C7.54616 5.04544 8.32387 5.82494 8.32387 6.81817Z" fill="#40BFFF" stroke="#40BFFF"/>
</svg>
