<svg width="22" height="10" viewBox="0 0 22 10" fill="none" xmlns="http://www.w3.org/2000/svg">
<path d="M21.0833 9.16667V10C21.5896 10 22 9.62692 22 9.16667H21.0833ZM21.0833 0.83336H22C22 0.493409 21.7729 0.187538 21.426 0.060451C21.0792 -0.0666378 20.6822 0.0105403 20.4229 0.25547L21.0833 0.83336ZM13.5208 0.83336L14.1813 0.25547C13.8996 -0.0106129 13.4588 -0.0763961 13.0982 0.0938401L13.5208 0.83336ZM1.77753 6.37859L1.35499 5.63906L1.35337 5.63983L1.77753 6.37859ZM2.47454 10H21.0833V8.33334H2.47454V10ZM22 9.16667V0.83336H20.1667V9.16667H22ZM21.0833 0.83336C20.4229 0.25547 20.4231 0.255182 20.4235 0.254898C20.4236 0.25481 20.4239 0.25453 20.4241 0.254352C20.4244 0.253997 20.4248 0.253659 20.4252 0.253339C20.4258 0.252699 20.4265 0.252128 20.427 0.251626C20.4281 0.250622 20.4288 0.249894 20.4294 0.24943C20.4304 0.248505 20.4302 0.248643 20.4289 0.249774C20.4265 0.252038 20.4193 0.258261 20.4077 0.267898C20.3843 0.287193 20.3429 0.320008 20.2835 0.362039C20.1647 0.446216 19.9753 0.566405 19.7155 0.689093C19.199 0.932977 18.3976 1.1905 17.3021 1.1905V2.85716C18.7274 2.85716 19.8166 2.51945 20.5606 2.1681C20.931 1.99317 21.2141 1.81574 21.4104 1.6767C21.5087 1.60713 21.5855 1.54694 21.6409 1.50113C21.6686 1.47821 21.691 1.45886 21.7081 1.44368C21.7168 1.4361 21.724 1.42955 21.7299 1.42412C21.7329 1.4214 21.7355 1.41897 21.7378 1.41682C21.739 1.41574 21.74 1.41474 21.741 1.41381C21.7416 1.41335 21.7421 1.4129 21.7425 1.41248C21.7427 1.41226 21.7431 1.41196 21.7432 1.41185C21.7434 1.41155 21.7438 1.41125 21.0833 0.83336ZM17.3021 1.1905C16.2066 1.1905 15.4051 0.932977 14.8887 0.689093C14.6289 0.566405 14.4394 0.446216 14.3206 0.362039C14.2612 0.320008 14.2199 0.287193 14.1965 0.267898C14.1849 0.258261 14.1777 0.252038 14.1752 0.249774C14.174 0.248643 14.1738 0.248505 14.1748 0.24943C14.1753 0.249894 14.1761 0.250622 14.1772 0.251626C14.1777 0.252128 14.1784 0.252699 14.179 0.253339C14.1794 0.253659 14.1797 0.253997 14.1801 0.254352C14.1803 0.25453 14.1806 0.25481 14.1807 0.254898C14.181 0.255182 14.1813 0.25547 13.5208 0.83336C12.8604 1.41125 12.8607 1.41155 12.861 1.41185C12.8611 1.41196 12.8615 1.41226 12.8617 1.41248C12.8621 1.4129 12.8626 1.41335 12.8631 1.41381C12.8641 1.41474 12.8651 1.41574 12.8663 1.41682C12.8686 1.41897 12.8713 1.4214 12.8742 1.42412C12.8802 1.42955 12.8874 1.4361 12.896 1.44368C12.9132 1.45886 12.9355 1.47821 12.9633 1.50113C13.0187 1.54694 13.0955 1.60713 13.1938 1.6767C13.39 1.81574 13.6732 1.99317 14.0436 2.1681C14.7876 2.51945 15.8768 2.85716 17.3021 2.85716V1.1905ZM13.0982 0.0938401L1.35499 5.63906L2.20007 7.1181L13.9434 1.57288L13.0982 0.0938401ZM1.35337 5.63983C0.513405 6.0384 0 6.83849 0 7.69525H1.83333C1.83333 7.43772 1.98795 7.21876 2.2017 7.11733L1.35337 5.63983ZM0 7.69525C0 8.93827 1.07471 10 2.47454 10V8.33334C2.15265 8.33334 1.83333 8.07841 1.83333 7.69525H0Z" fill="#40BFFF"/>
<path d="M11.763 2.03783C11.4821 1.65489 10.913 1.55141 10.4918 1.8067C10.0705 2.06199 9.95673 2.57938 10.2375 2.96232L11.763 2.03783ZM12.0709 5.46232C12.3517 5.84526 12.9208 5.94873 13.3421 5.69344C13.7633 5.43815 13.8771 4.92076 13.5963 4.53782L12.0709 5.46232ZM10.2375 2.96232L12.0709 5.46232L13.5963 4.53782L11.763 2.03783L10.2375 2.96232Z" fill="#40BFFF"/>
<path d="M8.09319 3.7007C7.81008 3.31916 7.24033 3.21851 6.82064 3.47589C6.40094 3.73327 6.29022 4.25121 6.57334 4.63275L8.09319 3.7007ZM7.66962 6.11016C7.95273 6.4917 8.52247 6.59235 8.94217 6.33497C9.36188 6.07759 9.47259 5.55965 9.18948 5.17811L7.66962 6.11016ZM6.57334 4.63275L7.66962 6.11016L9.18948 5.17811L8.09319 3.7007L6.57334 4.63275Z" fill="#40BFFF"/>
</svg>
