<svg width="18" height="18" viewBox="0 0 18 18" fill="none" xmlns="http://www.w3.org/2000/svg">
<path d="M11.025 3.93751L11.8788 3.6529C11.7563 3.28539 11.4123 3.03751 11.025 3.03751V3.93751ZM12.0375 6.97501L12.8913 7.25961C12.9529 7.07487 12.9529 6.87514 12.8913 6.6904L12.0375 6.97501ZM11.025 10.0125L10.1712 9.7279C10.0633 10.0513 10.1476 10.4078 10.3886 10.6489L11.025 10.0125ZM17.1 16.0875L17.5025 16.8925C17.7612 16.7631 17.942 16.5173 17.9884 16.2317C18.0347 15.9461 17.9409 15.6557 17.7364 15.4511L17.1 16.0875ZM0.90001 16.0875L0.263615 15.4511C0.0590497 15.6557 -0.0347103 15.9461 0.0116333 16.2317C0.0579733 16.5173 0.238762 16.7631 0.497518 16.8925L0.90001 16.0875ZM6.975 10.0125L7.6114 10.6489C7.85244 10.4078 7.93661 10.0513 7.82881 9.7279L6.975 10.0125ZM5.9625 6.97501L5.10869 6.6904C5.0471 6.87514 5.0471 7.07487 5.10869 7.25961L5.9625 6.97501ZM6.975 3.93751V3.03751C6.58761 3.03751 6.24369 3.28539 6.12119 3.6529L6.975 3.93751ZM10.1712 4.22211L11.1837 7.25961L12.8913 6.6904L11.8788 3.6529L10.1712 4.22211ZM11.1837 6.6904L10.1712 9.7279L11.8788 10.2971L12.8913 7.25961L11.1837 6.6904ZM10.3886 10.6489L16.4636 16.7239L17.7364 15.4511L11.6614 9.37611L10.3886 10.6489ZM17.1 16.0875C16.6975 15.2825 16.6979 15.2823 16.6984 15.2821C16.6986 15.282 16.699 15.2817 16.6993 15.2816C16.6998 15.2814 16.7004 15.2811 16.7009 15.2808C16.7019 15.2803 16.7028 15.2799 16.7035 15.2795C16.7051 15.2788 16.706 15.2783 16.7066 15.278C16.7076 15.2776 16.7065 15.2781 16.7033 15.2796C16.697 15.2825 16.6822 15.289 16.6584 15.2988C16.6109 15.3184 16.5275 15.3508 16.404 15.3919C16.1572 15.4742 15.7505 15.5914 15.1516 15.7112C13.9532 15.9509 11.9883 16.2 8.99999 16.2V18C12.0866 18 14.1717 17.7429 15.5046 17.4763C16.1714 17.3429 16.6506 17.2071 16.9733 17.0996C17.1346 17.0457 17.2568 16.999 17.3438 16.9632C17.3873 16.9453 17.4219 16.9302 17.4482 16.9182C17.4613 16.9123 17.4724 16.907 17.4814 16.9027C17.4859 16.9006 17.4899 16.8987 17.4935 16.897C17.4952 16.8961 17.4968 16.8953 17.4983 16.8945C17.499 16.8942 17.4998 16.8938 17.5005 16.8935C17.5008 16.8933 17.5013 16.8931 17.5015 16.893C17.502 16.8927 17.5025 16.8925 17.1 16.0875ZM8.99999 16.2C6.01168 16.2 4.04677 15.9509 2.84839 15.7112C2.24947 15.5914 1.84278 15.4742 1.59594 15.3919C1.47253 15.3508 1.3891 15.3184 1.34156 15.2988C1.31779 15.289 1.30299 15.2825 1.29666 15.2796C1.29349 15.2781 1.29243 15.2776 1.29343 15.278C1.29393 15.2783 1.29494 15.2788 1.29645 15.2795C1.29721 15.2799 1.29809 15.2803 1.2991 15.2808C1.29961 15.2811 1.30014 15.2814 1.30071 15.2816C1.30099 15.2817 1.30144 15.282 1.30158 15.2821C1.30204 15.2823 1.3025 15.2825 0.90001 16.0875C0.497518 16.8925 0.497998 16.8927 0.498485 16.893C0.498657 16.8931 0.499152 16.8933 0.499497 16.8935C0.500188 16.8938 0.500909 16.8942 0.501662 16.8945C0.503167 16.8953 0.504795 16.8961 0.506549 16.897C0.510058 16.8987 0.514065 16.9006 0.51858 16.9027C0.527609 16.907 0.538667 16.9123 0.551813 16.9182C0.578105 16.9302 0.612745 16.9453 0.656212 16.9632C0.743149 16.999 0.865375 17.0457 1.02673 17.0996C1.34942 17.2071 1.82867 17.3429 2.49537 17.4763C3.82823 17.7429 5.91331 18 8.99999 18V16.2ZM1.5364 16.7239L7.6114 10.6489L6.3386 9.37611L0.263615 15.4511L1.5364 16.7239ZM7.82881 9.7279L6.81631 6.6904L5.10869 7.25961L6.12119 10.2971L7.82881 9.7279ZM6.81631 7.25961L7.82881 4.22211L6.12119 3.6529L5.10869 6.6904L6.81631 7.25961ZM6.975 4.83751H11.025V3.03751H6.975V4.83751Z" fill="#40BFFF"/>
<path d="M10.0123 3.9375L9.1585 3.65289C9.06701 3.92735 9.11304 4.22905 9.28219 4.46374C9.45135 4.69843 9.72301 4.8375 10.0123 4.8375V3.9375ZM13.0498 3.9375V4.8375C13.4372 4.8375 13.7811 4.58961 13.9036 4.22211L13.0498 3.9375ZM14.0623 0.9L14.9161 1.18461C15.0076 0.910152 14.9616 0.608452 14.7924 0.373761C14.6233 0.139069 14.3516 0 14.0623 0V0.9ZM11.0248 0.9V0C10.6374 0 10.2935 0.247887 10.171 0.615395L11.0248 0.9ZM10.0123 4.8375H13.0498V3.0375H10.0123V4.8375ZM13.9036 4.22211L14.9161 1.18461L13.2085 0.615395L12.196 3.65289L13.9036 4.22211ZM14.0623 0H11.0248V1.8H14.0623V0ZM10.171 0.615395L9.1585 3.65289L10.8661 4.22211L11.8786 1.18461L10.171 0.615395Z" fill="#40BFFF"/>
<path d="M3.9376 0.9V0C3.6483 0 3.37664 0.139069 3.20748 0.373761C3.03833 0.608452 2.99231 0.910152 3.08379 1.18461L3.9376 0.9ZM6.97509 0.9L7.82891 0.615395C7.70641 0.247887 7.36248 0 6.97509 0V0.9ZM7.98759 3.9375V4.8375C8.27689 4.8375 8.54855 4.69843 8.71771 4.46374C8.88686 4.22905 8.93289 3.92735 8.8414 3.65289L7.98759 3.9375ZM4.9501 3.9375L4.09629 4.22211C4.21879 4.58961 4.56271 4.8375 4.9501 4.8375V3.9375ZM3.9376 1.8H6.97509V0H3.9376V1.8ZM6.12128 1.18461L7.13378 4.22211L8.8414 3.65289L7.82891 0.615395L6.12128 1.18461ZM7.98759 3.0375H4.9501V4.8375H7.98759V3.0375ZM5.80391 3.65289L4.79141 0.615395L3.08379 1.18461L4.09629 4.22211L5.80391 3.65289Z" fill="#40BFFF"/>
<path d="M6.97519 9.11249C6.47814 9.11249 6.0752 9.51543 6.0752 10.0125C6.0752 10.5095 6.47814 10.9125 6.97519 10.9125V9.11249ZM11.0252 10.9125C11.5222 10.9125 11.9252 10.5095 11.9252 10.0125C11.9252 9.51543 11.5222 9.11249 11.0252 9.11249V10.9125ZM6.97519 10.9125H11.0252V9.11249H6.97519V10.9125Z" fill="#40BFFF"/>
</svg>
