<svg width="18" height="18" viewBox="0 0 18 18" fill="none" xmlns="http://www.w3.org/2000/svg">
<path d="M5.9625 0.899988V0C5.63826 0 5.33908 0.174411 5.17932 0.456565C5.01956 0.738719 5.02394 1.08499 5.19076 1.36303L5.9625 0.899988ZM12.0375 0.899988L12.8092 1.36303C12.9761 1.08499 12.9804 0.738719 12.8207 0.456565C12.6609 0.174411 12.3617 0 12.0375 0V0.899988ZM9 5.96242L8.22826 6.42546C8.39091 6.69654 8.68387 6.86241 9 6.86241C9.31614 6.86241 9.60909 6.69654 9.77174 6.42546L9 5.96242ZM5.9625 1.79998H12.0375V0H5.9625V1.79998ZM11.2658 0.436948L8.22826 5.49938L9.77174 6.42546L12.8092 1.36303L11.2658 0.436948ZM9.77174 5.49938L6.73424 0.436948L5.19076 1.36303L8.22826 6.42546L9.77174 5.49938Z" fill="#40BFFF"/>
<path d="M12.6735 0.263599C12.322 -0.0878665 11.7522 -0.0878665 11.4007 0.263599C11.0492 0.615066 11.0492 1.18491 11.4007 1.53637L12.6735 0.263599ZM14.0621 2.92496L14.9159 3.20956C15.0237 2.88616 14.9396 2.52962 14.6985 2.28857L14.0621 2.92496ZM12.0371 8.99988L11.4007 9.63627C11.6213 9.85682 11.9403 9.94747 12.2439 9.87579C12.5475 9.80412 12.7923 9.58039 12.8909 9.28448L12.0371 8.99988ZM9.636 5.32603C9.28453 4.97457 8.71468 4.97457 8.36321 5.32603C8.01174 5.6775 8.01174 6.24734 8.36321 6.59881L9.636 5.32603ZM11.4007 1.53637L13.4257 3.56135L14.6985 2.28857L12.6735 0.263599L11.4007 1.53637ZM13.2083 2.64036L11.1833 8.71527L12.8909 9.28448L14.9159 3.20956L13.2083 2.64036ZM12.6735 8.36349L9.636 5.32603L8.36321 6.59881L11.4007 9.63627L12.6735 8.36349Z" fill="#40BFFF"/>
<path d="M4.22211 3.77901C4.69365 3.62183 4.9485 3.11215 4.79131 2.64061C4.63414 2.16907 4.12445 1.91423 3.65289 2.07141L4.22211 3.77901ZM0.9 3.9377L0.615395 3.08389C0.247887 3.20639 0 3.55031 0 3.9377H0.9ZM0.9 17.1H0C0 17.5971 0.402943 18 0.9 18V17.1ZM17.1 17.1V18C17.5971 18 18 17.5971 18 17.1H17.1ZM17.1 3.9377H18C18 3.55031 17.7521 3.20639 17.3846 3.08389L17.1 3.9377ZM14.3471 2.07141C13.8756 1.91423 13.3659 2.16907 13.2087 2.64061C13.0515 3.11215 13.3063 3.62183 13.7779 3.77901L14.3471 2.07141ZM3.65289 2.07141L0.615395 3.08389L1.18461 4.7915L4.22211 3.77901L3.65289 2.07141ZM0 3.9377V17.1H1.8V3.9377H0ZM0.9 18H17.1V16.2H0.9V18ZM18 17.1V3.9377H16.2V17.1H18ZM17.3846 3.08389L14.3471 2.07141L13.7779 3.77901L16.8154 4.7915L17.3846 3.08389Z" fill="#40BFFF"/>
<path d="M8.09963 17.0998C8.09963 17.5968 8.50258 17.9998 8.99963 17.9998C9.49669 17.9998 9.89963 17.5968 9.89963 17.0998H8.09963ZM8.99963 5.96242H9.89963C9.89963 5.59841 9.68036 5.27024 9.34404 5.13094C9.00774 4.99164 8.62063 5.06864 8.36323 5.32603L8.99963 5.96242ZM5.96213 8.99988L5.10832 9.28448C5.20695 9.58039 5.45178 9.80412 5.75536 9.87579C6.05893 9.94747 6.37797 9.85682 6.59853 9.63627L5.96213 8.99988ZM3.93713 2.92496L3.30074 2.28857C3.05969 2.52962 2.97552 2.88616 3.08332 3.20956L3.93713 2.92496ZM6.59853 1.53637C6.95 1.18491 6.95 0.615066 6.59853 0.263599C6.24706 -0.0878665 5.67721 -0.0878665 5.32573 0.263599L6.59853 1.53637ZM9.89963 17.0998V5.96242H8.09963V17.0998H9.89963ZM8.36323 5.32603L5.32573 8.36349L6.59853 9.63627L9.63603 6.59881L8.36323 5.32603ZM6.81594 8.71527L4.79095 2.64036L3.08332 3.20956L5.10832 9.28448L6.81594 8.71527ZM4.57353 3.56135L6.59853 1.53637L5.32573 0.263599L3.30074 2.28857L4.57353 3.56135Z" fill="#40BFFF"/>
</svg>
