<svg width="18" height="19" viewBox="0 0 18 19" fill="none" xmlns="http://www.w3.org/2000/svg">
<path d="M5.56875 18C5.84834 18 6.075 17.7482 6.075 17.4375C6.075 17.1268 5.84834 16.875 5.56875 16.875C5.28916 16.875 5.0625 17.1268 5.0625 17.4375C5.0625 17.7482 5.28916 18 5.56875 18Z" fill="#9098B1" stroke="#9098B1" stroke-width="2" stroke-linecap="round" stroke-linejoin="round"/>
<path d="M12.6562 18C12.9357 18 13.1624 17.7482 13.1624 17.4375C13.1624 17.1268 12.9357 16.875 12.6562 16.875C12.3766 16.875 12.1499 17.1268 12.1499 17.4375C12.1499 17.7482 12.3766 18 12.6562 18Z" fill="#9098B1" stroke="#9098B1" stroke-width="2" stroke-linecap="round" stroke-linejoin="round"/>
<path d="M0.899999 0C0.402943 0 0 0.447715 0 1C0 1.55228 0.402943 2 0.899999 2V0ZM2.925 1L3.81275 0.835601C3.74042 0.353413 3.36495 0 2.925 0V1ZM4.95 14.5L4.06225 14.6644C4.13457 15.1466 4.51004 15.5 4.95 15.5V14.5ZM15.075 14.5V15.5C15.4968 15.5 15.862 15.1745 15.9536 14.7169L15.075 14.5ZM17.1 4.375L17.9786 4.59193C18.0378 4.29583 17.9728 3.98587 17.802 3.74927C17.6312 3.51267 17.373 3.375 17.1 3.375V4.375ZM3.9375 3.375C3.44045 3.375 3.0375 3.82272 3.0375 4.375C3.0375 4.92728 3.44045 5.375 3.9375 5.375V3.375ZM0.899999 2H2.925V0H0.899999V2ZM2.03725 1.1644L4.06225 14.6644L5.83775 14.3356L3.81275 0.835601L2.03725 1.1644ZM4.95 15.5H15.075V13.5H4.95V15.5ZM15.9536 14.7169L17.9786 4.59193L16.2214 4.15807L14.1964 14.2831L15.9536 14.7169ZM17.1 3.375H3.9375V5.375H17.1V3.375Z" fill="#9098B1"/>
</svg>
