<svg width="18" height="14" viewBox="0 0 18 14" fill="none" xmlns="http://www.w3.org/2000/svg">
<path d="M16.0875 0.870968H16.9875C16.9875 0.389945 16.5846 0 16.0875 0V0.870968ZM1.9125 0.870968V0C1.41545 0 1.0125 0.389945 1.0125 0.870968H1.9125ZM1.9125 3.65273L2.80718 3.74724C2.81073 3.71585 2.8125 3.68431 2.8125 3.65273H1.9125ZM0.900002 12.629L0.00531763 12.5345C-0.0224248 12.7805 0.0592537 13.0263 0.229967 13.2105C0.40068 13.3948 0.644306 13.5 0.900002 13.5V12.629ZM5.9625 12.629V13.5C6.27863 13.5 6.57159 13.3395 6.73424 13.0771L5.9625 12.629ZM9 7.72984L9.77174 7.28173C9.60909 7.01939 9.31613 6.85887 9 6.85887C8.68386 6.85887 8.3909 7.01939 8.22825 7.28173L9 7.72984ZM12.0375 12.629L11.2657 13.0771C11.4284 13.3395 11.7213 13.5 12.0375 13.5V12.629ZM17.1 12.629V13.5C17.3559 13.5 17.5998 13.3945 17.7706 13.2099C17.9413 13.0253 18.0228 12.7791 17.9945 12.5329L17.1 12.629ZM16.0875 3.81048H15.1875C15.1875 3.84262 15.1893 3.87473 15.193 3.90666L16.0875 3.81048ZM16.0875 0H1.9125V1.74194H16.0875V0ZM1.0125 0.870968V3.65273H2.8125V0.870968H1.0125ZM1.01782 3.55822L0.00531763 12.5345L1.79469 12.7235L2.80718 3.74724L1.01782 3.55822ZM0.900002 13.5H5.9625V11.7581H0.900002V13.5ZM6.73424 13.0771L9.77174 8.17795L8.22825 7.28173L5.19076 12.1809L6.73424 13.0771ZM8.22825 8.17795L11.2657 13.0771L12.8092 12.1809L9.77174 7.28173L8.22825 8.17795ZM12.0375 13.5H17.1V11.7581H12.0375V13.5ZM17.9945 12.5329L16.982 3.7143L15.193 3.90666L16.2055 12.7252L17.9945 12.5329ZM16.9875 3.81048V0.870968H15.1875V3.81048H16.9875Z" fill="#40BFFF"/>
<path d="M1.91269 2.93951C1.41564 2.93951 1.0127 3.32946 1.0127 3.81048C1.0127 4.2915 1.41564 4.68145 1.91269 4.68145V2.93951ZM16.0877 4.68145C16.5848 4.68145 16.9877 4.2915 16.9877 3.81048C16.9877 3.32946 16.5848 2.93951 16.0877 2.93951V4.68145ZM1.91269 4.68145H16.0877V2.93951H1.91269V4.68145Z" fill="#40BFFF"/>
</svg>
