<svg width="18" height="18" viewBox="0 0 18 18" fill="none" xmlns="http://www.w3.org/2000/svg">
<path d="M16.1999 13.043C16.1999 13.54 16.6029 13.943 17.0999 13.943C17.597 13.943 17.9999 13.54 17.9999 13.043H16.1999ZM17.0999 6.9574H17.9999C17.9999 6.46035 17.597 6.0574 17.0999 6.0574V6.9574ZM11.0711 6.0574C10.5741 6.0574 10.1711 6.46035 10.1711 6.9574C10.1711 7.45446 10.5741 7.8574 11.0711 7.8574V6.0574ZM17.9999 13.043V6.9574H16.1999V13.043H17.9999ZM17.0999 6.0574H11.0711V7.8574H17.0999V6.0574Z" fill="#40BFFF"/>
<path d="M17.7362 7.5938C18.0876 7.24233 18.0876 6.67248 17.7362 6.32101C17.3847 5.96954 16.8148 5.96954 16.4634 6.32101L17.7362 7.5938ZM6.32073 16.4636C5.96926 16.8151 5.96926 17.385 6.32073 17.7364C6.6722 18.0879 7.24205 18.0879 7.59352 17.7364L6.32073 16.4636ZM16.4634 6.32101L6.32073 16.4636L7.59352 17.7364L17.7362 7.5938L16.4634 6.32101Z" fill="#40BFFF"/>
<path d="M1.8 4.95702C1.8 4.45996 1.39706 4.05702 0.9 4.05702C0.402943 4.05702 0 4.45996 0 4.95702H1.8ZM0.9 11.0426H0C0 11.5397 0.402943 11.9426 0.9 11.9426V11.0426ZM6.92778 11.9426C7.42483 11.9426 7.82778 11.5397 7.82778 11.0426C7.82778 10.5455 7.42483 10.1426 6.92778 10.1426V11.9426ZM0 4.95702V11.0426H1.8V4.95702H0ZM0.9 11.9426H6.92778V10.1426H0.9V11.9426Z" fill="#40BFFF"/>
<path d="M0.263603 10.4062C-0.0878677 10.7577 -0.0878677 11.3276 0.263603 11.679C0.615075 12.0305 1.18492 12.0305 1.5364 11.679L0.263603 10.4062ZM11.679 1.53639C12.0305 1.18492 12.0305 0.615073 11.679 0.263602C11.3276 -0.0878675 10.7577 -0.0878675 10.4062 0.263602L11.679 1.53639ZM1.5364 11.679L11.679 1.53639L10.4062 0.263602L0.263603 10.4062L1.5364 11.679Z" fill="#40BFFF"/>
</svg>
