<svg width="8" height="15" viewBox="0 0 8 15" fill="none" xmlns="http://www.w3.org/2000/svg">
<path d="M6.29028 13.7937C6.67935 14.1857 7.31251 14.188 7.70448 13.7989C8.09645 13.4099 8.0988 12.7767 7.70972 12.3847L6.29028 13.7937ZM1 7.04461L0.290279 6.34013C-0.0967598 6.73004 -0.0967598 7.35918 0.290279 7.74909L1 7.04461ZM7.70972 1.70448C8.0988 1.31252 8.09645 0.679355 7.70448 0.29028C7.31251 -0.0987988 6.67935 -0.0964488 6.29028 0.295518L7.70972 1.70448ZM7.70972 12.3847L1.70972 6.34013L0.290279 7.74909L6.29028 13.7937L7.70972 12.3847ZM1.70972 7.74909L7.70972 1.70448L6.29028 0.295518L0.290279 6.34013L1.70972 7.74909Z" fill="#9098B1"/>
</svg>
