<svg width="20" height="20" viewBox="0 0 20 20" fill="none" xmlns="http://www.w3.org/2000/svg">
<path d="M11.25 15.625C11.25 16.1773 11.6977 16.625 12.25 16.625C12.8023 16.625 13.25 16.1773 13.25 15.625H11.25ZM12.25 10L11.45 9.4C11.3202 9.5731 11.25 9.78363 11.25 10H12.25ZM19 1L19.8 1.6C20.0273 1.29698 20.0638 0.89157 19.8944 0.552786C19.725 0.214002 19.3788 0 19 0V1ZM1.00001 1V0C0.621233 0 0.27497 0.214002 0.105578 0.552786C-0.0638149 0.89157 -0.0272549 1.29698 0.200005 1.6L1.00001 1ZM7.75001 10H8.75C8.75 9.78363 8.67982 9.5731 8.55 9.4L7.75001 10ZM6.75001 19C6.75001 19.5523 7.19773 20 7.75001 20C8.30229 20 8.75 19.5523 8.75 19H6.75001ZM13.25 15.625V10H11.25V15.625H13.25ZM13.05 10.6L19.8 1.6L18.2 0.4L11.45 9.4L13.05 10.6ZM19 0H1.00001V2H19V0ZM0.200005 1.6L6.95001 10.6L8.55 9.4L1.80001 0.4L0.200005 1.6ZM6.75001 10V19H8.75V10H6.75001Z" fill="#40BFFF"/>
</svg>
