<svg width="18" height="18" viewBox="0 0 18 18" fill="none" xmlns="http://www.w3.org/2000/svg">
<path d="M0.525797 1.94315C0.106939 2.05273 -0.10528 2.37845 0.0517919 2.67067C0.208863 2.96289 0.675745 3.11095 1.0946 3.00137L0.525797 1.94315ZM8.10002 0.565086L8.38442 0.0359782C8.20105 -0.0119927 7.99898 -0.0119927 7.81562 0.0359782L8.10002 0.565086ZM15.1054 3.00137C15.5243 3.11095 15.9912 2.96289 16.1482 2.67067C16.3053 2.37845 16.0931 2.05273 15.6742 1.94315L15.1054 3.00137ZM1.0946 3.00137L8.38442 1.09419L7.81562 0.0359782L0.525797 1.94315L1.0946 3.00137ZM7.81562 1.09419L15.1054 3.00137L15.6742 1.94315L8.38442 0.0359782L7.81562 1.09419Z" fill="#40BFFF"/>
<path d="M0.9 16.2C0.402943 16.2 0 16.603 0 17.1C0 17.5971 0.402943 18 0.9 18V16.2ZM17.1 18C17.5971 18 18 17.5971 18 17.1C18 16.603 17.5971 16.2 17.1 16.2V18ZM0.9 18H17.1V16.2H0.9V18Z" fill="#40BFFF"/>
<path d="M8.1001 13.05C8.1001 13.5471 8.50304 13.95 9.0001 13.95C9.49715 13.95 9.9001 13.5471 9.9001 13.05H8.1001ZM9.9001 6.97501C9.9001 6.47796 9.49715 6.07501 9.0001 6.07501C8.50304 6.07501 8.1001 6.47796 8.1001 6.97501H9.9001ZM9.9001 13.05V6.97501H8.1001V13.05H9.9001Z" fill="#40BFFF"/>
<path d="M14.1748 13.05C14.1748 13.5471 14.5777 13.95 15.0748 13.95C15.5719 13.95 15.9748 13.5471 15.9748 13.05H14.1748ZM15.9748 6.97501C15.9748 6.47796 15.5719 6.07501 15.0748 6.07501C14.5777 6.07501 14.1748 6.47796 14.1748 6.97501H15.9748ZM15.9748 13.05V6.97501H14.1748V13.05H15.9748Z" fill="#40BFFF"/>
<path d="M2.0249 13.05C2.0249 13.5471 2.42785 13.95 2.9249 13.95C3.42196 13.95 3.8249 13.5471 3.8249 13.05H2.0249ZM3.8249 6.97501C3.8249 6.47796 3.42196 6.07501 2.9249 6.07501C2.42785 6.07501 2.0249 6.47796 2.0249 6.97501H3.8249ZM3.8249 13.05V6.97501H2.0249V13.05H3.8249Z" fill="#40BFFF"/>
</svg>
