<svg width="14" height="12" viewBox="0 0 14 12" fill="none" xmlns="http://www.w3.org/2000/svg">
<path fill-rule="evenodd" clip-rule="evenodd" d="M6.25 1.66667C3.90279 1.66667 2 3.25233 2 5.20833C2 7.16434 3.90279 8.75 6.25 8.75C8.59721 8.75 10.5 7.16434 10.5 5.20833C10.5 3.25233 8.59721 1.66667 6.25 1.66667ZM0 5.20833C0 2.33185 2.79822 0 6.25 0C9.70178 0 12.5 2.33185 12.5 5.20833C12.5 8.08482 9.70178 10.4167 6.25 10.4167C2.79822 10.4167 0 8.08482 0 5.20833Z" fill="#40BFFF"/>
<path fill-rule="evenodd" clip-rule="evenodd" d="M9.29289 7.74408C9.68342 7.41864 10.3166 7.41864 10.7071 7.74408L13.7071 10.2441C14.0976 10.5695 14.0976 11.0972 13.7071 11.4226C13.3166 11.748 12.6834 11.748 12.2929 11.4226L9.29289 8.92259C8.90237 8.59715 8.90237 8.06951 9.29289 7.74408Z" fill="#40BFFF"/>
</svg>
