<svg width="9" height="7" viewBox="0 0 9 7" fill="none" xmlns="http://www.w3.org/2000/svg">
<path d="M1.73106 2.619C1.35423 2.24372 0.721436 2.22344 0.317686 2.5737C-0.0860656 2.92397 -0.107886 3.51214 0.268949 3.88742L1.73106 2.619ZM3.33333 5.57693L2.60228 6.21113C2.7914 6.39948 3.05615 6.50641 3.33333 6.50641C3.61051 6.50641 3.87526 6.39948 4.06439 6.21113L3.33333 5.57693ZM8.73106 1.5637C9.10789 1.18842 9.08607 0.600247 8.68232 0.249985C8.27857 -0.100278 7.64578 -0.0799969 7.26894 0.295285L8.73106 1.5637ZM0.268949 3.88742L2.60228 6.21113L4.06439 4.94272L1.73106 2.619L0.268949 3.88742ZM4.06439 6.21113L8.73106 1.5637L7.26894 0.295285L2.60228 4.94272L4.06439 6.21113Z" fill="white"/>
</svg>
