<svg width="18" height="18" viewBox="0 0 18 18" fill="none" xmlns="http://www.w3.org/2000/svg">
<path d="M5.9625 0.899988V0C5.63826 0 5.33908 0.174411 5.17932 0.456565C5.01956 0.738719 5.02394 1.08499 5.19076 1.36303L5.9625 0.899988ZM12.0375 0.899988L12.8092 1.36303C12.9761 1.08499 12.9804 0.738719 12.8207 0.456565C12.6609 0.174411 12.3617 0 12.0375 0V0.899988ZM9 5.96242L8.22826 6.42546C8.39091 6.69654 8.68387 6.86241 9 6.86241C9.31614 6.86241 9.60909 6.69654 9.77174 6.42546L9 5.96242ZM5.9625 1.79998H12.0375V0H5.9625V1.79998ZM11.2658 0.436948L8.22826 5.49938L9.77174 6.42546L12.8092 1.36303L11.2658 0.436948ZM9.77174 5.49938L6.73424 0.436948L5.19076 1.36303L8.22826 6.42546L9.77174 5.49938Z" fill="#40BFFF"/>
<path d="M12.674 0.263599C12.3225 -0.0878665 11.7527 -0.0878665 11.4012 0.263599C11.0497 0.615066 11.0497 1.18491 11.4012 1.53637L12.674 0.263599ZM14.0626 2.92496L14.9164 3.20956C15.0242 2.88616 14.94 2.52962 14.699 2.28857L14.0626 2.92496ZM12.0376 8.99988L11.4012 9.63627C11.6218 9.85682 11.9408 9.94747 12.2444 9.87579C12.548 9.80412 12.7928 9.58039 12.8914 9.28448L12.0376 8.99988ZM9.63649 5.32603C9.28502 4.97457 8.71517 4.97457 8.3637 5.32603C8.01223 5.6775 8.01223 6.24734 8.3637 6.59881L9.63649 5.32603ZM11.4012 1.53637L13.4262 3.56135L14.699 2.28857L12.674 0.263599L11.4012 1.53637ZM13.2088 2.64036L11.1838 8.71527L12.8914 9.28448L14.9164 3.20956L13.2088 2.64036ZM12.674 8.36349L9.63649 5.32603L8.3637 6.59881L11.4012 9.63627L12.674 8.36349Z" fill="#40BFFF"/>
<path d="M4.22211 3.779C4.69365 3.62182 4.9485 3.11214 4.79131 2.64059C4.63414 2.16905 4.12445 1.91421 3.65289 2.07139L4.22211 3.779ZM0.9 3.93768L0.615395 3.08388C0.247887 3.20638 0 3.5503 0 3.93768H0.9ZM0.9 17.1H0C0 17.5971 0.402943 18 0.9 18V17.1ZM17.1 17.1V18C17.5971 18 18 17.5971 18 17.1H17.1ZM17.1 3.93768H18C18 3.5503 17.7521 3.20638 17.3846 3.08388L17.1 3.93768ZM14.3471 2.07139C13.8756 1.91421 13.3659 2.16905 13.2087 2.64059C13.0515 3.11214 13.3063 3.62182 13.7779 3.779L14.3471 2.07139ZM3.65289 2.07139L0.615395 3.08388L1.18461 4.79148L4.22211 3.779L3.65289 2.07139ZM0 3.93768V17.1H1.8V3.93768H0ZM0.9 18H17.1V16.2H0.9V18ZM18 17.1V3.93768H16.2V17.1H18ZM17.3846 3.08388L14.3471 2.07139L13.7779 3.779L16.8154 4.79148L17.3846 3.08388Z" fill="#40BFFF"/>
<path d="M8.10012 17.0998C8.10012 17.5968 8.50307 17.9998 9.00012 17.9998C9.49717 17.9998 9.90012 17.5968 9.90012 17.0998H8.10012ZM9.00012 5.96242H9.90012C9.90012 5.59841 9.68085 5.27024 9.34453 5.13094C9.00823 4.99164 8.62112 5.06864 8.36372 5.32603L9.00012 5.96242ZM5.96262 8.99988L5.10881 9.28448C5.20744 9.58039 5.45227 9.80412 5.75585 9.87579C6.05942 9.94747 6.37846 9.85682 6.59902 9.63627L5.96262 8.99988ZM3.93762 2.92496L3.30123 2.28857C3.06018 2.52962 2.97601 2.88616 3.08381 3.20956L3.93762 2.92496ZM6.59902 1.53637C6.95049 1.18491 6.95049 0.615066 6.59902 0.263599C6.24754 -0.0878665 5.6777 -0.0878665 5.32622 0.263599L6.59902 1.53637ZM9.90012 17.0998V5.96242H8.10012V17.0998H9.90012ZM8.36372 5.32603L5.32622 8.36349L6.59902 9.63627L9.63652 6.59881L8.36372 5.32603ZM6.81643 8.71527L4.79144 2.64036L3.08381 3.20956L5.10881 9.28448L6.81643 8.71527ZM4.57402 3.56135L6.59902 1.53637L5.32622 0.263599L3.30123 2.28857L4.57402 3.56135Z" fill="#40BFFF"/>
</svg>
