<svg width="16" height="22" viewBox="0 0 16 22" fill="none" xmlns="http://www.w3.org/2000/svg">
<path d="M2.90904 1V0C2.54337 0 2.20687 0.199586 2.03152 0.520466L2.90904 1ZM13.091 1L13.9685 0.520466C13.7931 0.199586 13.4566 0 13.091 0V1ZM15 21V22C15.3088 22 15.6003 21.8573 15.7897 21.6135C15.9792 21.3696 16.0453 21.0519 15.9689 20.7526L15 21ZM11.0839 21L10.1056 21.2074C10.2036 21.6695 10.6115 22 11.0839 22V21ZM8.00068 6.46L8.97893 6.25256C8.88095 5.79051 8.47305 5.46002 8.00073 5.46C7.5284 5.45998 7.12047 5.79044 7.02245 6.25248L8.00068 6.46ZM4.91614 21V22C5.38845 22 5.79636 21.6695 5.89437 21.2075L4.91614 21ZM1.00001 21L0.0310672 20.7527C-0.0452928 21.0519 0.0208533 21.3696 0.210293 21.6135C0.399732 21.8573 0.691209 22 1.00001 22V21ZM9.54228 13.73L10.5205 13.5226L9.54228 13.73ZM2.90904 2H13.091V0H2.90904V2ZM13.091 1C12.2134 1.47953 12.2134 1.47942 12.2133 1.47932C12.2133 1.47931 12.2133 1.47922 12.2133 1.47918C12.2132 1.47912 12.2132 1.47909 12.2132 1.47912C12.2132 1.47916 12.2134 1.4794 12.2136 1.47981C12.2141 1.48065 12.2149 1.48221 12.2161 1.4845C12.2186 1.48907 12.2226 1.49651 12.2281 1.5067C12.239 1.52708 12.2556 1.55842 12.2771 1.59974C12.3202 1.68241 12.3828 1.80473 12.4585 1.95878C12.6101 2.26762 12.8121 2.70007 13.0135 3.19349C13.4316 4.21803 13.7877 5.36588 13.7877 6.21H15.7877C15.7877 4.94912 15.2955 3.49197 14.8652 2.43776C14.6424 1.89181 14.4202 1.41644 14.2537 1.07732C14.1703 0.907377 14.1004 0.770674 14.0507 0.675323C14.0258 0.627624 14.006 0.590204 13.992 0.564073C13.985 0.551006 13.9795 0.540755 13.9755 0.533447C13.9736 0.529792 13.972 0.526873 13.9708 0.524705C13.9702 0.52362 13.9697 0.522724 13.9693 0.522017C13.9691 0.521663 13.969 0.521357 13.9688 0.521099C13.9688 0.52097 13.9687 0.520811 13.9686 0.520747C13.9686 0.520601 13.9685 0.520466 13.091 1ZM13.7877 6.21C13.7877 6.42916 13.7419 6.70613 13.6421 7.09663C13.5371 7.50767 13.4132 7.90071 13.2582 8.46221C12.9635 9.52976 12.6566 10.8733 12.6566 12.5787H14.6566C14.6566 11.1255 14.9152 9.97587 15.1861 8.99435C15.3139 8.53132 15.4728 8.01084 15.5799 7.59169C15.6922 7.152 15.7877 6.68209 15.7877 6.21H13.7877ZM12.6566 12.5787C12.6566 14.2626 13.0099 16.4498 13.347 18.1666C13.5176 19.0355 13.6881 19.8035 13.816 20.3544C13.8799 20.6301 13.9334 20.8519 13.971 21.0055C13.9897 21.0823 14.0046 21.142 14.0148 21.1829C14.02 21.2034 14.0239 21.2191 14.0267 21.2299C14.028 21.2353 14.0291 21.2395 14.0298 21.2424C14.0302 21.2439 14.0305 21.245 14.0307 21.2458C14.0308 21.2463 14.0309 21.2466 14.0309 21.2468C14.031 21.247 14.031 21.2471 14.031 21.2472C14.0311 21.2473 14.0311 21.2474 15 21C15.9689 20.7526 15.9689 20.7527 15.9689 20.7527C15.9689 20.7526 15.9689 20.7525 15.9688 20.7522C15.9687 20.7518 15.9685 20.751 15.9682 20.7499C15.9677 20.7478 15.9668 20.7443 15.9656 20.7397C15.9633 20.7304 15.9597 20.7162 15.955 20.6973C15.9456 20.6596 15.9315 20.6032 15.9136 20.5299C15.8777 20.3834 15.8262 20.1694 15.7642 19.9023C15.6402 19.3678 15.4748 18.6227 15.3095 17.7812C14.9749 16.0771 14.6566 14.0537 14.6566 12.5787H12.6566ZM15 20H11.0839V22H15V20ZM7.02245 6.25248L3.93791 20.7925L5.89437 21.2075L8.97891 6.66752L7.02245 6.25248ZM4.91614 20H1.00001V22H4.91614V20ZM1.00001 21C1.96895 21.2473 1.96897 21.2472 1.969 21.2471C1.96901 21.247 1.96905 21.2469 1.96908 21.2468C1.96914 21.2465 1.96923 21.2462 1.96933 21.2458C1.96954 21.245 1.96983 21.2438 1.9702 21.2424C1.97094 21.2395 1.972 21.2353 1.97337 21.2299C1.9761 21.2191 1.98007 21.2033 1.98519 21.1829C1.99542 21.1419 2.01027 21.0822 2.02907 21.0054C2.06666 20.8518 2.12007 20.6299 2.18404 20.3542C2.3119 19.8032 2.48237 19.0351 2.653 18.1661C2.99009 16.4492 3.34345 14.262 3.34345 12.5787H1.34345C1.34345 14.053 1.02509 16.0764 0.690462 17.7808C0.525226 18.6224 0.359842 19.3676 0.235798 19.9022C0.173822 20.1693 0.122283 20.3833 0.0864002 20.5299C0.0684623 20.6032 0.0544452 20.6596 0.0450032 20.6974C0.0402822 20.7162 0.0367062 20.7304 0.0343562 20.7397C0.0331812 20.7444 0.0323122 20.7478 0.0317612 20.75C0.0314852 20.7511 0.0312892 20.7518 0.0311732 20.7523C0.0311152 20.7525 0.0310772 20.7527 0.0310592 20.7527C0.0310502 20.7528 0.0310522 20.7528 0.0310482 20.7528C0.0310552 20.7528 0.0310673 20.7527 1.00001 21ZM3.34345 12.5787C3.34345 10.8743 3.03663 9.52449 2.74204 8.45366C2.58659 7.88857 2.46339 7.49753 2.35774 7.0851C2.25754 6.69395 2.21227 6.42125 2.21227 6.21H0.212271C0.212271 6.67687 0.308406 7.14464 0.420299 7.58142C0.526739 7.99692 0.68634 8.52127 0.813679 8.98415C1.08468 9.96926 1.34345 11.1257 1.34345 12.5787H3.34345ZM2.21227 6.21C2.21227 5.36588 2.56838 4.21803 2.98652 3.19349C3.18789 2.70007 3.38992 2.26762 3.54156 1.95878C3.61719 1.80473 3.67981 1.68241 3.7229 1.59974C3.74444 1.55842 3.76106 1.52708 3.77195 1.5067C3.7774 1.49651 3.7814 1.48907 3.78387 1.4845C3.78511 1.48221 3.78596 1.48065 3.78641 1.47981C3.78664 1.4794 3.78677 1.47916 3.78679 1.47912C3.7868 1.47909 3.78679 1.47912 3.78675 1.47918C3.78673 1.47922 3.78669 1.47931 3.78668 1.47932C3.78662 1.47942 3.78656 1.47953 2.90904 1C2.03152 0.520466 2.03144 0.520601 2.03136 0.520747C2.03133 0.520811 2.03124 0.520969 2.03117 0.521099C2.03103 0.521357 2.03086 0.521663 2.03067 0.522017C2.03029 0.522724 2.0298 0.52362 2.02921 0.524705C2.02803 0.526873 2.02645 0.529792 2.02447 0.533447C2.02052 0.540755 2.015 0.551006 2.00802 0.564073C1.99405 0.590204 1.97422 0.627624 1.94936 0.675323C1.89966 0.770674 1.82972 0.907377 1.74628 1.07732C1.57977 1.41644 1.35761 1.89181 1.13479 2.43776C0.704549 3.49197 0.212271 4.94912 0.212271 6.21H2.21227ZM12.0621 20.7926L10.5205 13.5226L8.56403 13.9374L10.1056 21.2074L12.0621 20.7926ZM10.5205 13.5226L8.97893 6.25256L7.02243 6.66744L8.56403 13.9374L10.5205 13.5226Z" fill="#40BFFF"/>
</svg>
