<svg width="21" height="16" viewBox="0 0 21 16" fill="none" xmlns="http://www.w3.org/2000/svg">
<path d="M2.70459 8.57361L3.43556 7.95048L3.43555 7.95047L2.70459 8.57361ZM10.5004 14.9241L9.76941 15.5473C10.1758 15.8783 10.825 15.8783 11.2313 15.5473L10.5004 14.9241ZM18.2961 8.57361L19.0271 9.19675L18.2961 8.57361ZM10.5425 2.18879L11.2734 2.81193L11.2736 2.81178L10.5425 2.18879ZM10.5004 2.22308L9.76941 2.84621C10.1758 3.17724 10.825 3.17724 11.2313 2.84622L10.5004 2.22308ZM10.4573 2.18797L11.1882 1.56484V1.56483L10.4573 2.18797ZM2.6615 8.5385L3.39245 7.91536L3.39229 7.91523L2.6615 8.5385ZM1.97363 9.19675L9.76941 15.5473L11.2313 14.301L3.43556 7.95048L1.97363 9.19675ZM11.2313 15.5473L19.0271 9.19675L17.5652 7.95048L9.76941 14.301L11.2313 15.5473ZM19.0271 9.19675L19.0692 9.16245L17.6073 7.91619L17.5652 7.95048L19.0271 9.19675ZM19.0692 9.16245C21.6437 7.06528 21.6439 3.66205 19.069 1.56551L17.6075 2.81207C19.3425 4.22473 19.3427 6.50252 17.6073 7.91619L19.0692 9.16245ZM19.069 1.56551C16.5081 -0.519679 12.3719 -0.52109 9.81134 1.56579L11.2736 2.81178C13.0208 1.38783 15.8586 1.38804 17.6075 2.81207L19.069 1.56551ZM9.81152 1.56564L9.76942 1.59994L11.2313 2.84622L11.2734 2.81193L9.81152 1.56564ZM11.2314 1.59995L11.1882 1.56484L9.72631 2.8111L9.76941 2.84621L11.2314 1.59995ZM11.1882 1.56483C8.62706 -0.521535 4.49077 -0.521735 1.93036 1.56498L3.39263 2.81096C5.14006 1.38684 7.97767 1.38663 9.72632 2.81111L11.1882 1.56483ZM1.93036 1.56498C-0.642627 3.66193 -0.644394 7.06505 1.93071 9.16178L3.39229 7.91523C1.65755 6.50275 1.65779 4.22484 3.39263 2.81096L1.93036 1.56498ZM1.93054 9.16164L1.97364 9.19675L3.43555 7.95047L3.39245 7.91536L1.93054 9.16164Z" fill="#9098B1"/>
</svg>
