<svg width="18" height="18" viewBox="0 0 18 18" fill="none" xmlns="http://www.w3.org/2000/svg">
<path d="M0.360051 6.255C-0.0375936 6.55324 -0.118179 7.11735 0.180052 7.515C0.478284 7.91265 1.0424 7.99323 1.44004 7.695L0.360051 6.255ZM9 0.900002L9.54 0.180002C9.21999 -0.0600007 8.78 -0.0600007 8.46 0.180002L9 0.900002ZM16.56 7.695C16.9576 7.99323 17.5217 7.91265 17.8199 7.515C18.1182 7.11735 18.0376 6.55324 17.6399 6.255L16.56 7.695ZM1.44004 7.695L9.54 1.62L8.46 0.180002L0.360051 6.255L1.44004 7.695ZM8.46 1.62L16.56 7.695L17.6399 6.255L9.54 0.180002L8.46 1.62Z" fill="#9098B1"/>
<path d="M17.9999 6.97501C17.9999 6.47796 17.597 6.07501 17.0999 6.07501C16.6028 6.07501 16.1999 6.47796 16.1999 6.97501H17.9999ZM17.0999 17.1V18C17.597 18 17.9999 17.5971 17.9999 17.1H17.0999ZM0.899994 17.1H0C0 17.5971 0.402941 18 0.899994 18V17.1ZM1.79999 6.97501C1.79999 6.47796 1.39705 6.07501 0.899994 6.07501C0.402941 6.07501 0 6.47796 0 6.97501H1.79999ZM16.1999 6.97501V17.1H17.9999V6.97501H16.1999ZM17.0999 16.2H0.899994V18H17.0999V16.2ZM1.79999 17.1V6.97501H0V17.1H1.79999Z" fill="#9098B1"/>
<path d="M6.97495 11.025V10.125C6.47789 10.125 6.07495 10.5279 6.07495 11.025H6.97495ZM11.0249 11.025H11.9249C11.9249 10.5279 11.522 10.125 11.0249 10.125V11.025ZM11.0249 17.1V18C11.522 18 11.9249 17.5971 11.9249 17.1H11.0249ZM6.97495 17.1H6.07495C6.07495 17.5971 6.47789 18 6.97495 18V17.1ZM6.97495 11.925H11.0249V10.125H6.97495V11.925ZM10.1249 11.025V17.1H11.9249V11.025H10.1249ZM11.0249 16.2H6.97495V18H11.0249V16.2ZM7.87494 17.1V11.025H6.07495V17.1H7.87494Z" fill="#9098B1"/>
</svg>
