<svg width="18" height="18" viewBox="0 0 18 18" fill="none" xmlns="http://www.w3.org/2000/svg">
<path d="M0.9 0.9V0C0.402943 0 0 0.402943 0 0.9H0.9ZM17.1 0.9H18C18 0.402943 17.5971 0 17.1 0V0.9ZM17.1 17.1V18C17.5971 18 18 17.5971 18 17.1H17.1ZM0.9 17.1H0C0 17.5971 0.402943 18 0.9 18V17.1ZM0.9 1.8H17.1V0H0.9V1.8ZM16.2 0.9V17.1H18V0.9H16.2ZM17.1 16.2H0.9V18H17.1V16.2ZM1.8 17.1V0.9H0V17.1H1.8Z" fill="#40BFFF"/>
<path d="M5.9625 4.05C5.46544 4.05 5.0625 4.45295 5.0625 4.95C5.0625 5.44706 5.46544 5.85 5.9625 5.85V4.05ZM12.0375 5.85C12.5346 5.85 12.9375 5.44706 12.9375 4.95C12.9375 4.45295 12.5346 4.05 12.0375 4.05V5.85ZM5.9625 5.85H12.0375V4.05H5.9625V5.85Z" fill="#40BFFF"/>
<path d="M5.9625 8.10001C5.46544 8.10001 5.0625 8.50295 5.0625 9.00001C5.0625 9.49706 5.46544 9.90001 5.9625 9.90001V8.10001ZM12.0375 9.90001C12.5346 9.90001 12.9375 9.49706 12.9375 9.00001C12.9375 8.50295 12.5346 8.10001 12.0375 8.10001V9.90001ZM5.9625 9.90001H12.0375V8.10001H5.9625V9.90001Z" fill="#40BFFF"/>
<path d="M5.9625 12.15C5.46544 12.15 5.0625 12.5529 5.0625 13.05C5.0625 13.5471 5.46544 13.95 5.9625 13.95V12.15ZM12.0375 13.95C12.5346 13.95 12.9375 13.5471 12.9375 13.05C12.9375 12.5529 12.5346 12.15 12.0375 12.15V13.95ZM5.9625 13.95H12.0375V12.15H5.9625V13.95Z" fill="#40BFFF"/>
</svg>
