<svg width="20" height="19" viewBox="0 0 20 19" fill="none" xmlns="http://www.w3.org/2000/svg">
<path fill-rule="evenodd" clip-rule="evenodd" d="M10 1.84947C8.3971 1.84947 7.09766 3.05111 7.09766 4.5334C7.09766 6.01571 8.3971 7.21734 10 7.21734C11.603 7.21734 12.9024 6.01571 12.9024 4.5334C12.9024 3.05111 11.603 1.84947 10 1.84947ZM5.09766 4.5334C5.09766 2.02968 7.29253 0 10 0C12.7075 0 14.9024 2.02968 14.9024 4.5334C14.9024 7.03714 12.7075 9.06682 10 9.06682C7.29253 9.06682 5.09766 7.03714 5.09766 4.5334Z" fill="#9098B1"/>
<path fill-rule="evenodd" clip-rule="evenodd" d="M7.51784 12.3823C4.47035 12.3823 2 14.6667 2 17.4849V17.5691C2 18.0798 1.55228 18.4938 1 18.4938C0.447715 18.4938 0 18.0798 0 17.5691V17.4849C0 13.6453 3.36578 10.5328 7.51784 10.5328H12.4822C16.6342 10.5328 20 13.6453 20 17.4849V17.5691C20 18.0798 19.5523 18.4938 19 18.4938C18.4477 18.4938 18 18.0798 18 17.5691V17.4849C18 14.6667 15.5296 12.3823 12.4822 12.3823H7.51784Z" fill="#9098B1"/>
</svg>
