<svg width="18" height="15" viewBox="0 0 18 15" fill="none" xmlns="http://www.w3.org/2000/svg">
<path d="M0.9 2.53125C0.402943 2.53125 0 2.86704 0 3.28125C0 3.69546 0.402943 4.03125 0.9 4.03125V2.53125ZM17.1 4.03125C17.5971 4.03125 18 3.69546 18 3.28125C18 2.86704 17.5971 2.53125 17.1 2.53125V4.03125ZM0.9 4.03125H17.1V2.53125H0.9V4.03125Z" fill="#9098B1"/>
<path d="M5.9625 0C5.46544 0 5.0625 0.335786 5.0625 0.75C5.0625 1.16421 5.46544 1.5 5.9625 1.5V0ZM12.0375 1.5C12.5346 1.5 12.9375 1.16421 12.9375 0.75C12.9375 0.335786 12.5346 0 12.0375 0V1.5ZM5.9625 1.5H12.0375V0H5.9625V1.5Z" fill="#9098B1"/>
<path d="M2.9249 3.28125V2.53125C2.42785 2.53125 2.0249 2.86704 2.0249 3.28125H2.9249ZM15.0749 3.28125H15.9749C15.9749 2.86704 15.572 2.53125 15.0749 2.53125V3.28125ZM15.0749 14.25V15C15.572 15 15.9749 14.6642 15.9749 14.25H15.0749ZM2.9249 14.25H2.0249C2.0249 14.6642 2.42785 15 2.9249 15V14.25ZM2.9249 4.03125H15.0749V2.53125H2.9249V4.03125ZM14.1749 3.28125V14.25H15.9749V3.28125H14.1749ZM15.0749 13.5H2.9249V15H15.0749V13.5ZM3.8249 14.25V3.28125H2.0249V14.25H3.8249Z" fill="#9098B1"/>
</svg>
