<svg width="12" height="20" viewBox="0 0 12 20" fill="none" xmlns="http://www.w3.org/2000/svg">
<path d="M10.2857 6.36364C10.2857 8.87402 8.36693 10.9091 6 10.9091V12.7273C9.31371 12.7273 12 9.87817 12 6.36364H10.2857ZM6 10.9091C3.63307 10.9091 1.71429 8.87402 1.71429 6.36364H0C0 9.87817 2.68629 12.7273 6 12.7273V10.9091ZM1.71429 6.36364C1.71429 3.85325 3.63307 1.81818 6 1.81818V0C2.68629 0 0 2.8491 0 6.36364H1.71429ZM6 1.81818C8.36693 1.81818 10.2857 3.85325 10.2857 6.36364H12C12 2.8491 9.31371 0 6 0V1.81818Z" fill="#40BFFF"/>
<path d="M6.85686 11.8182C6.85686 11.3161 6.47311 10.9091 5.99972 10.9091C5.52633 10.9091 5.14258 11.3161 5.14258 11.8182H6.85686ZM5.14258 19.0909C5.14258 19.593 5.52633 20 5.99972 20C6.47311 20 6.85686 19.593 6.85686 19.0909H5.14258ZM5.14258 11.8182V19.0909H6.85686V11.8182H5.14258Z" fill="#40BFFF"/>
<path d="M3.42843 14.5454C2.95504 14.5454 2.57129 14.9525 2.57129 15.4545C2.57129 15.9566 2.95504 16.3636 3.42843 16.3636V14.5454ZM8.57129 16.3636C9.04467 16.3636 9.42843 15.9566 9.42843 15.4545C9.42843 14.9525 9.04467 14.5454 8.57129 14.5454V16.3636ZM3.42843 16.3636H8.57129V14.5454H3.42843V16.3636Z" fill="#40BFFF"/>
</svg>
