<svg width="8" height="14" viewBox="0 0 8 14" fill="none" xmlns="http://www.w3.org/2000/svg">
<path d="M1.70711 0.29287C1.31658 -0.0976301 0.683422 -0.0976302 0.292892 0.29287C-0.0976284 0.68337 -0.0976284 1.31657 0.292892 1.70707L1.70711 0.29287ZM7 6.99997L7.70711 7.70708C8.09763 7.31655 8.09763 6.68339 7.70711 6.29286L7 6.99997ZM0.292891 12.2929C-0.0976294 12.6834 -0.0976295 13.3166 0.292891 13.7071C0.683421 14.0976 1.31658 14.0976 1.70711 13.7071L0.292891 12.2929ZM0.292892 1.70707L6.29289 7.70708L7.70711 6.29286L1.70711 0.29287L0.292892 1.70707ZM6.29289 6.29286L0.292891 12.2929L1.70711 13.7071L7.70711 7.70708L6.29289 6.29286Z" fill="#9098B1"/>
</svg>
