<svg width="14" height="22" viewBox="0 0 14 22" fill="none" xmlns="http://www.w3.org/2000/svg">
<path d="M0.875 14.6667V13.75C0.391751 13.75 0 14.1604 0 14.6667H0.875ZM13.125 14.6667H14C14 14.1604 13.6083 13.75 13.125 13.75V14.6667ZM13.125 17.2333V18.15C13.6083 18.15 14 17.7396 14 17.2333H13.125ZM8.225 21.0833V22C8.70824 22 9.1 21.5896 9.1 21.0833H8.225ZM5.775 21.0833H4.9C4.9 21.5896 5.29175 22 5.775 22V21.0833ZM0.875 17.2333H0C0 17.7396 0.391751 18.15 0.875 18.15V17.2333ZM0.875 15.5833H13.125V13.75H0.875V15.5833ZM12.25 14.6667V17.2333H14V14.6667H12.25ZM13.125 16.3167C11.7702 16.3167 10.3653 16.6687 9.27089 17.4331C8.15047 18.2156 7.35 19.4444 7.35 21.0833H9.1C9.1 20.1556 9.52453 19.4594 10.2416 18.9585C10.9847 18.4396 12.0298 18.15 13.125 18.15V16.3167ZM8.225 20.1667H5.775V22H8.225V20.1667ZM6.65 21.0833C6.65 19.4444 5.84953 18.2156 4.72911 17.4331C3.63463 16.6687 2.2298 16.3167 0.875 16.3167V18.15C1.9702 18.15 3.01537 18.4396 3.75839 18.9585C4.47547 19.4594 4.9 20.1556 4.9 21.0833H6.65ZM1.75 17.2333V14.6667H0V17.2333H1.75Z" fill="#40BFFF"/>
<path d="M1.75 0.916667C1.75 0.410405 1.35825 0 0.875 0C0.391751 0 0 0.410405 0 0.916667H1.75ZM14 0.916667C14 0.410405 13.6083 0 13.125 0C12.6417 0 12.25 0.410405 12.25 0.916667H14ZM0 0.916667V5.80381H1.75V0.916667H0ZM0 5.80381C0 8.65621 2.16735 11 4.8783 11V9.16667C3.167 9.16667 1.75 7.67879 1.75 5.80381H0ZM4.8783 11H9.12047V9.16667H4.8783V11ZM9.12047 11C11.8324 11 14 8.65639 14 5.80381H12.25C12.25 7.67861 10.8332 9.16667 9.12047 9.16667V11ZM14 5.80381V0.916667H12.25V5.80381H14Z" fill="#40BFFF"/>
<path d="M0.875 3.66667C0.391751 3.66667 0 4.07708 0 4.58334C0 5.0896 0.391751 5.50001 0.875 5.50001V3.66667ZM7 10.0833L6.14789 10.2916C6.2489 10.7452 6.65845 11.0473 7.10007 10.994C7.54169 10.9407 7.875 10.549 7.875 10.0833H7ZM13.125 5.50001C13.6083 5.50001 14 5.0896 14 4.58334C14 4.07708 13.6083 3.66667 13.125 3.66667V5.50001ZM0.875 5.50001C2.95441 5.50001 4.24742 6.64564 5.05817 7.85901C5.467 8.47086 5.74298 9.08867 5.91652 9.55621C6.0028 9.78861 6.06241 9.98023 6.09969 10.1104C6.11831 10.1754 6.13127 10.2248 6.13912 10.2559C6.14305 10.2715 6.1457 10.2825 6.14714 10.2885C6.14785 10.2916 6.14827 10.2934 6.1484 10.2939C6.14846 10.2942 6.14845 10.2941 6.14836 10.2937C6.14832 10.2935 6.14826 10.2933 6.14818 10.2929C6.14814 10.2928 6.14807 10.2924 6.14805 10.2923C6.14797 10.292 6.14789 10.2916 7 10.0833C7.85211 9.87504 7.85202 9.87464 7.85193 9.87421C7.85188 9.87404 7.85179 9.87359 7.85171 9.87325C7.85156 9.87256 7.85138 9.87179 7.85119 9.87094C7.8508 9.86922 7.85033 9.86718 7.84979 9.86481C7.8487 9.86005 7.84728 9.85396 7.84553 9.84659C7.84204 9.83184 7.83721 9.81194 7.83097 9.78722C7.81849 9.7378 7.80034 9.66901 7.77589 9.58361C7.72704 9.41301 7.65267 9.17494 7.54753 8.89172C7.33827 8.328 7.00175 7.57082 6.49183 6.80767C5.46508 5.27104 3.69559 3.66667 0.875 3.66667V5.50001ZM7 10.0833C7.875 10.0833 7.875 10.0838 7.875 10.0843C7.875 10.0845 7.875 10.0849 7.875 10.0852C7.875 10.0857 7.87499 10.0862 7.87499 10.0865C7.87499 10.0873 7.87498 10.0877 7.87498 10.0878C7.87498 10.0881 7.87499 10.087 7.87504 10.0848C7.87511 10.0803 7.87532 10.071 7.87583 10.0572C7.87686 10.0295 7.8791 9.98397 7.88394 9.92313C7.89365 9.80114 7.91364 9.61968 7.95462 9.39893C8.03722 8.95391 8.2011 8.37051 8.52143 7.79522C9.12875 6.70452 10.3708 5.50001 13.125 5.50001V3.66667C9.75424 3.66667 7.93375 5.21215 7.00982 6.87146C6.56452 7.67117 6.3456 8.46276 6.23679 9.049C6.18206 9.34387 6.15421 9.5921 6.13999 9.77088C6.13286 9.86044 6.12912 9.93306 6.12715 9.98595C6.12617 10.0124 6.12564 10.034 6.12534 10.0503C6.12519 10.0585 6.12511 10.0653 6.12506 10.0709C6.12504 10.0736 6.12502 10.076 6.12501 10.0781C6.12501 10.0792 6.12501 10.0801 6.125 10.081C6.125 10.0814 6.125 10.082 6.125 10.0822C6.125 10.0828 6.125 10.0833 7 10.0833Z" fill="#40BFFF"/>
</svg>
