<svg width="10" height="6" viewBox="0 0 10 6" fill="none" xmlns="http://www.w3.org/2000/svg">
<path d="M9.70711 1.70711C10.0976 1.31658 10.0976 0.68342 9.70711 0.29289C9.31658 -0.09763 8.68342 -0.0976299 8.29289 0.29289L9.70711 1.70711ZM5 5L4.29289 5.70711C4.68342 6.09763 5.31658 6.09763 5.70711 5.70711L5 5ZM1.70711 0.29289C1.31658 -0.0976296 0.683416 -0.0976296 0.292892 0.292891C-0.097631 0.683421 -0.0976309 1.31658 0.292892 1.70711L1.70711 0.29289ZM8.29289 0.29289L4.29289 4.29289L5.70711 5.70711L9.70711 1.70711L8.29289 0.29289ZM5.70711 4.29289L1.70711 0.29289L0.292892 1.70711L4.29289 5.70711L5.70711 4.29289Z" fill="#9098B1"/>
</svg>
