<svg width="18" height="18" viewBox="0 0 18 18" fill="none" xmlns="http://www.w3.org/2000/svg">
<path d="M0.9 8.09998C0.402943 8.09998 0 8.50292 0 8.99997C0 9.49703 0.402943 9.89997 0.9 9.89997V8.09998ZM5.9625 9.89997C6.45955 9.89997 6.8625 9.49703 6.8625 8.99997C6.8625 8.50292 6.45955 8.09998 5.9625 8.09998V9.89997ZM0.9 9.89997H5.9625V8.09998H0.9V9.89997Z" fill="#9098B1"/>
<path d="M14.9626 0.899998C14.9626 0.402942 14.5597 0 14.0626 0C13.5655 0 13.1626 0.402942 13.1626 0.899998H14.9626ZM14.0626 17.1H13.1626C13.1626 17.464 13.3819 17.7921 13.7182 17.9315C14.0545 18.0708 14.4416 17.9937 14.699 17.7363L14.0626 17.1ZM17.7365 14.6989C18.088 14.3474 18.088 13.7775 17.7365 13.4261C17.385 13.0746 16.8152 13.0746 16.4637 13.4261L17.7365 14.6989ZM13.1626 0.899998V17.1H14.9626V0.899998H13.1626ZM14.699 17.7363L17.7365 14.6989L16.4637 13.4261L13.4262 16.4636L14.699 17.7363Z" fill="#9098B1"/>
<path d="M0.9 1.8C0.402943 1.8 0 2.20294 0 2.69999C0 3.19705 0.402943 3.59999 0.9 3.59999V1.8ZM10.0125 3.59999C10.5096 3.59999 10.9125 3.19705 10.9125 2.69999C10.9125 2.20294 10.5096 1.8 10.0125 1.8V3.59999ZM0.9 3.59999H10.0125V1.8H0.9V3.59999Z" fill="#9098B1"/>
<path d="M0.9 14.4C0.402943 14.4 0 14.8029 0 15.3C0 15.797 0.402943 16.2 0.9 16.2V14.4ZM3.9375 16.2C4.43455 16.2 4.8375 15.797 4.8375 15.3C4.8375 14.8029 4.43455 14.4 3.9375 14.4V16.2ZM0.9 16.2H3.9375V14.4H0.9V16.2Z" fill="#9098B1"/>
<path d="M13.4261 17.7364C13.7776 18.0878 14.3474 18.0878 14.6989 17.7364C15.0504 17.3849 15.0504 16.815 14.6989 16.4636L13.4261 17.7364ZM11.6614 13.4261C11.3099 13.0746 10.7401 13.0746 10.3886 13.4261C10.0371 13.7775 10.0371 14.3474 10.3886 14.6989L11.6614 13.4261ZM14.6989 16.4636L11.6614 13.4261L10.3886 14.6989L13.4261 17.7364L14.6989 16.4636Z" fill="#9098B1"/>
</svg>
