<svg width="209" height="63" viewBox="0 0 209 63" fill="none" xmlns="http://www.w3.org/2000/svg">
<path d="M30.1844 23.73C30.1844 27.3 27.2497 30.24 23.6863 30.24C20.1229 30.24 17.1883 27.3 17.1883 23.73C17.1883 20.1601 20.1229 17.22 23.6863 17.22C27.2497 17.22 30.1844 20.1601 30.1844 23.73ZM23.6863 32.76C20.1229 32.76 17.1883 35.7001 17.1883 39.27C17.1883 42.84 20.1229 45.7801 23.6863 45.7801C27.2497 45.7801 30.1844 42.84 30.1844 39.27C30.1844 35.7001 27.2497 32.76 23.6863 32.76ZM62.884 31.5001C62.884 48.9301 48.84 63.0001 31.442 63.0001C14.0441 63.0001 0 48.9301 0 31.5001C0 14.07 14.0441 0 31.442 0C48.84 0 62.884 14.07 62.884 31.5001ZM54.4995 31.5001C54.4995 18.69 44.2284 8.40001 31.442 8.40001C18.6556 8.40001 8.38454 18.69 8.38454 31.5001C8.38454 44.31 18.6556 54.6001 31.442 54.6001C44.2284 54.6001 54.4995 44.31 54.4995 31.5001ZM39.1977 32.76C35.6343 32.76 32.6998 35.7001 32.6998 39.27C32.6998 42.84 35.6343 45.7801 39.1977 45.7801C42.7612 45.7801 45.6958 42.84 45.6958 39.27C45.6958 35.7001 42.7612 32.76 39.1977 32.76ZM39.1977 17.22C35.6343 17.22 32.6998 20.1601 32.6998 23.73C32.6998 27.3 35.6343 30.24 39.1977 30.24C42.7612 30.24 45.6958 27.3 45.6958 23.73C45.6958 20.1601 42.7612 17.22 39.1977 17.22ZM147.358 12.39C147.568 12.39 147.778 12.6 147.987 12.81V19.53C147.987 19.95 147.568 20.1601 147.358 20.1601H136.249C135.83 20.1601 135.62 19.74 135.62 19.53V13.02C135.62 12.6 136.04 12.39 136.249 12.39H147.358ZM147.148 21.8401H125.768C125.558 21.8401 125.139 22.05 125.139 22.4701L122.414 32.97L122.205 33.6L118.851 22.4701C118.851 22.26 118.431 21.8401 118.222 21.8401H109.838C109.627 21.8401 109.208 22.05 109.208 22.4701L106.065 32.97L105.855 33.6L105.645 32.97L104.387 27.72L103.13 22.4701C103.13 22.26 102.711 21.8401 102.501 21.8401H85.7319V12.81C85.7319 12.6 85.3127 12.18 84.8935 12.39L74.4128 15.75C73.9935 15.75 73.784 15.9601 73.784 16.38V22.05H71.059C70.8494 22.05 70.4301 22.26 70.4301 22.6801V30.6601C70.4301 30.8701 70.6397 31.29 71.059 31.29H73.784V41.16C73.784 48.0901 77.5571 51.2401 84.4743 51.2401C87.4088 51.2401 90.1338 50.6101 92.0204 49.5601V41.16C92.0204 40.7401 91.6011 40.5301 91.3915 40.7401C90.3435 41.16 89.2953 41.3701 88.4569 41.3701C86.5704 41.3701 85.5223 40.5301 85.5223 38.43V31.29H91.6011C91.8107 31.29 92.23 31.08 92.23 30.6601V23.94L100.195 50.4001C100.195 50.6101 100.615 51.0301 100.824 51.0301H109.627C109.838 51.0301 110.257 50.8201 110.257 50.4001L114.029 38.64L115.916 44.7301L117.593 50.4001C117.593 50.6101 118.012 51.0301 118.222 51.0301H127.026C127.236 51.0301 127.655 50.8201 127.655 50.4001L135.62 23.94V50.4001C135.62 50.6101 135.83 51.0301 136.249 51.0301H146.939C147.148 51.0301 147.568 50.8201 147.568 50.4001V22.4701C147.568 22.26 147.358 21.8401 147.148 21.8401ZM161.193 12.39H150.503C150.293 12.39 149.873 12.6 149.873 13.02V50.19C149.873 50.4001 150.084 50.8201 150.503 50.8201H161.193C161.402 50.8201 161.822 50.6101 161.822 50.19V12.81C161.822 12.6 161.612 12.39 161.193 12.39ZM175.446 12.39H164.337C164.128 12.39 163.708 12.6 163.708 13.02V19.53C163.708 19.74 163.917 20.1601 164.337 20.1601H175.446C175.656 20.1601 176.076 19.95 176.076 19.53V12.81C176.076 12.6 175.865 12.39 175.446 12.39ZM175.237 21.8401H164.547C164.337 21.8401 163.917 22.05 163.917 22.4701V49.98C163.917 50.19 164.128 50.6101 164.547 50.6101H175.237C175.446 50.6101 175.866 50.4001 175.866 49.98V22.4701C175.866 22.26 175.656 21.8401 175.237 21.8401ZM208.985 36.12C208.985 44.1001 202.277 51.0301 192.845 51.0301C183.622 51.0301 176.914 44.1001 176.914 36.12C176.914 28.14 183.622 21.21 193.054 21.21C202.277 21.21 208.985 28.14 208.985 36.12ZM197.666 36.3301C197.666 33.3901 195.57 31.08 193.054 31.29C190.329 31.29 188.443 33.6 188.443 36.3301C188.443 39.0601 190.539 41.3701 193.054 41.3701C195.779 41.3701 197.666 39.0601 197.666 36.3301Z" fill="#F22F46"/>
</svg>
