<svg width="20" height="16" viewBox="0 0 20 16" fill="none" xmlns="http://www.w3.org/2000/svg">
<path d="M17.0705 0.888889H17.9796C17.9796 0.397969 17.5726 0 17.0705 0V0.888889ZM2.92957 0.888889V0C2.42749 0 2.02048 0.397969 2.02048 0.888889H2.92957ZM2.92957 3.79813L3.81918 3.98113C3.83213 3.92095 3.83866 3.85963 3.83866 3.79813H2.92957ZM0.909114 13.1889L0.019496 13.006C-0.0485585 13.3222 0.0643587 13.6497 0.31438 13.8612L0.909114 13.1889ZM19.0909 13.1889L19.6856 13.8612C19.9366 13.649 20.0493 13.32 19.9798 13.0028L19.0909 13.1889ZM17.0705 3.96419H16.1614C16.1614 4.02675 16.1681 4.08915 16.1816 4.15033L17.0705 3.96419ZM17.0705 0H2.92957V1.77778H17.0705V0ZM2.02048 0.888889V3.79813H3.83866V0.888889H2.02048ZM2.03995 3.61515L0.019496 13.006L1.79873 13.3719L3.81918 3.98113L2.03995 3.61515ZM0.909114 13.1889C0.31438 13.8612 0.314888 13.8616 0.315404 13.862C0.315588 13.8622 0.316114 13.8627 0.316482 13.8629C0.317219 13.8636 0.31799 13.8643 0.318799 13.8649C0.320416 13.8662 0.322178 13.8677 0.324085 13.8693C0.327899 13.8724 0.332296 13.876 0.337283 13.8801C0.347258 13.8881 0.359596 13.8979 0.374363 13.9092C0.403901 13.9319 0.443144 13.961 0.49264 13.9955C0.591665 14.0644 0.731534 14.1549 0.916623 14.2593C1.28705 14.4682 1.83683 14.7316 2.60049 14.99C4.12844 15.5069 6.50314 16 10 16V14.2222C6.67872 14.2222 4.50797 13.7541 3.195 13.31C2.53821 13.0878 2.09368 12.8708 1.82489 12.7192C1.69039 12.6434 1.59943 12.5836 1.54753 12.5476C1.52157 12.5294 1.50532 12.5172 1.49824 12.5117C1.4947 12.5091 1.49344 12.508 1.4944 12.5088C1.49488 12.5092 1.49591 12.51 1.49749 12.5113C1.49828 12.512 1.4992 12.5127 1.50026 12.5136C1.50079 12.514 1.50136 12.5145 1.50195 12.515C1.50225 12.5153 1.50273 12.5156 1.50287 12.5158C1.50336 12.5162 1.50385 12.5166 0.909114 13.1889ZM10 16C13.4969 16 15.8716 15.5069 17.3996 14.99C18.1632 14.7316 18.713 14.4682 19.0834 14.2593C19.2685 14.1549 19.4084 14.0644 19.5074 13.9955C19.5569 13.961 19.5961 13.9319 19.6256 13.9092C19.6405 13.8979 19.6527 13.8881 19.6627 13.8801C19.6677 13.876 19.6721 13.8724 19.6759 13.8693C19.6778 13.8677 19.6796 13.8662 19.6812 13.8649C19.682 13.8643 19.6828 13.8636 19.6836 13.8629C19.6839 13.8627 19.6845 13.8622 19.6846 13.862C19.6851 13.8616 19.6856 13.8612 19.0909 13.1889C18.4962 12.5166 18.4966 12.5162 18.4972 12.5158C18.4973 12.5156 18.4977 12.5153 18.4981 12.515C18.4986 12.5145 18.4993 12.514 18.4997 12.5136C18.5008 12.5127 18.5017 12.512 18.5026 12.5113C18.5041 12.51 18.5052 12.5092 18.5056 12.5088C18.5066 12.508 18.5054 12.5091 18.5018 12.5117C18.4947 12.5172 18.4785 12.5294 18.4525 12.5476C18.4006 12.5836 18.3096 12.6434 18.1751 12.7192C17.9064 12.8708 17.4618 13.0878 16.805 13.31C15.4921 13.7541 13.3213 14.2222 10 14.2222V16ZM19.9798 13.0028L17.9594 3.77804L16.1816 4.15033L18.202 13.375L19.9798 13.0028ZM17.9796 3.96419V0.888889H16.1614V3.96419H17.9796Z" fill="#40BFFF"/>
<path d="M2.72745 2.66666C2.22537 2.66666 1.81836 3.06463 1.81836 3.55555C1.81836 4.04647 2.22537 4.44443 2.72745 4.44443V2.66666ZM17.2729 4.44443C17.775 4.44443 18.182 4.04647 18.182 3.55555C18.182 3.06463 17.775 2.66666 17.2729 2.66666V4.44443ZM2.72745 4.44443H17.2729V2.66666H2.72745V4.44443Z" fill="#40BFFF"/>
<path d="M12.74 9.92404C12.8225 10.4083 13.2909 10.7354 13.7861 10.6547C14.2814 10.574 14.6159 10.116 14.5334 9.63177L12.74 9.92404ZM13.6243 4.29844C13.5418 3.8142 13.0734 3.48707 12.5781 3.56778C12.0829 3.64848 11.7483 4.10646 11.8309 4.5907L13.6243 4.29844ZM14.5334 9.63177L13.6243 4.29844L11.8309 4.5907L12.74 9.92404L14.5334 9.63177Z" fill="#40BFFF"/>
<path d="M5.46661 9.63177C5.38407 10.116 5.71864 10.574 6.21388 10.6547C6.70913 10.7354 7.17751 10.4083 7.26006 9.92404L5.46661 9.63177ZM8.16914 4.5907C8.25169 4.10646 7.91712 3.64848 7.42188 3.56778C6.92663 3.48707 6.45824 3.8142 6.3757 4.29844L8.16914 4.5907ZM7.26006 9.92404L8.16914 4.5907L6.3757 4.29844L5.46661 9.63177L7.26006 9.92404Z" fill="#40BFFF"/>
</svg>
