<svg width="21" height="21" viewBox="0 0 21 21" fill="none" xmlns="http://www.w3.org/2000/svg">
<path d="M20.6858 19.2192L16.8099 15.3433C20.0572 11.258 19.4287 5.28702 15.3433 2.03967C11.258 -1.20769 5.28702 -0.474411 2.03967 3.50621C-1.20769 7.59159 -0.474411 13.5625 3.50621 16.8099C6.96307 19.5335 11.8865 19.5335 15.3433 16.8099L19.2192 20.6858C19.6382 21.1048 20.2667 21.1048 20.6858 20.6858C21.1048 20.2667 21.1048 19.6382 20.6858 19.2192ZM9.47715 16.8099C5.39177 16.8099 2.14442 13.5625 2.14442 9.47715C2.14442 5.39177 5.39177 2.14442 9.47715 2.14442C13.5625 2.14442 16.8099 5.39177 16.8099 9.47715C16.8099 13.5625 13.5625 16.8099 9.47715 16.8099Z" fill="#262B35"/>
</svg>
