<svg width="22" height="20" viewBox="0 0 22 20" fill="none" xmlns="http://www.w3.org/2000/svg">
<path d="M7.66672 1.00001L8.56335 0.557232C8.42722 0.281572 8.17186 0.0838495 7.87089 0.0210775C7.56993 -0.0416985 7.25682 0.0374606 7.02185 0.23572L7.66672 1.00001ZM14.3333 1.00001L14.9782 0.23572C14.7432 0.0374606 14.4301 -0.0416985 14.1292 0.0210775C13.8282 0.0838495 13.5728 0.281572 13.4367 0.557232L14.3333 1.00001ZM21 6.62501L21.8352 7.17494C22.1138 6.75188 22.032 6.18736 21.6449 5.86072L21 6.62501ZM18.7778 10L18.3261 10.8922C18.7797 11.1218 19.3334 10.9746 19.613 10.5499L18.7778 10ZM16.5556 8.87501L17.0072 7.98282C16.6972 7.82589 16.328 7.84111 16.0319 8.02305C15.7359 8.20499 15.5556 8.52754 15.5556 8.87501H16.5556ZM16.5556 19V20C17.1078 20 17.5556 19.5523 17.5556 19H16.5556ZM5.44449 19H4.44449C4.44449 19.5523 4.89221 20 5.44449 20V19ZM5.44449 8.87501H6.44449C6.44449 8.52754 6.26413 8.20499 5.9681 8.02305C5.67208 7.84111 5.30283 7.82589 4.99283 7.98282L5.44449 8.87501ZM3.22227 10L2.38706 10.5499C2.66665 10.9746 3.22035 11.1218 3.67394 10.8922L3.22227 10ZM1.00005 6.62501L0.355175 5.86072C-0.0319638 6.18736 -0.113724 6.75188 0.164837 7.17494L1.00005 6.62501ZM7.66672 1.00001C6.77009 1.44279 6.77026 1.44315 6.77044 1.44351C6.77051 1.44365 6.7707 1.44402 6.77083 1.44429C6.77109 1.44482 6.77138 1.44539 6.77168 1.446C6.77228 1.44721 6.77295 1.44856 6.7737 1.45005C6.77519 1.45302 6.77698 1.45655 6.77905 1.46062C6.78319 1.46875 6.7885 1.47904 6.79498 1.49133C6.80792 1.5159 6.82556 1.54857 6.84792 1.58819C6.89257 1.6673 6.95647 1.77489 7.03984 1.90151C7.20544 2.153 7.45398 2.48894 7.78857 2.82771C8.45167 3.4991 9.52559 4.25001 11 4.25001V2.25001C10.2523 2.25001 9.65954 1.87592 9.21153 1.42231C8.99057 1.19858 8.82244 0.972017 8.71026 0.801642C8.65474 0.717319 8.61448 0.649131 8.58968 0.605191C8.57732 0.583288 8.56892 0.567623 8.5645 0.559234C8.56229 0.555046 8.56109 0.552695 8.5609 0.552312C8.5608 0.552121 8.56095 0.552425 8.56136 0.553239C8.56157 0.553645 8.56183 0.55418 8.56216 0.554845C8.56233 0.555177 8.56251 0.555542 8.56271 0.55594C8.56281 0.556139 8.56297 0.556462 8.56302 0.556561C8.56318 0.556892 8.56335 0.557232 7.66672 1.00001ZM11 4.25001C12.4745 4.25001 13.5484 3.4991 14.2115 2.82771C14.5461 2.48894 14.7946 2.153 14.9602 1.90151C15.0436 1.77489 15.1075 1.6673 15.1521 1.58819C15.1745 1.54857 15.1921 1.5159 15.2051 1.49133C15.2115 1.47904 15.2169 1.46875 15.221 1.46062C15.2231 1.45655 15.2249 1.45302 15.2264 1.45005C15.2271 1.44856 15.2278 1.44721 15.2284 1.446C15.2287 1.44539 15.229 1.44482 15.2292 1.44429C15.2294 1.44402 15.2295 1.44365 15.2296 1.44351C15.2298 1.44315 15.23 1.44279 14.3333 1.00001C13.4367 0.557232 13.4369 0.556892 13.437 0.556561C13.4371 0.556462 13.4372 0.556139 13.4373 0.55594C13.4375 0.555542 13.4377 0.555177 13.4379 0.554845C13.4382 0.55418 13.4385 0.553645 13.4387 0.553239C13.4391 0.552425 13.4393 0.552121 13.4392 0.552312C13.439 0.552695 13.4378 0.555046 13.4356 0.559234C13.4311 0.567623 13.4227 0.583288 13.4104 0.605191C13.3856 0.649131 13.3453 0.717319 13.2898 0.801642C13.1776 0.972017 13.0095 1.19858 12.7885 1.42231C12.3405 1.87592 11.7478 2.25001 11 2.25001V4.25001ZM13.6885 1.7643L20.3551 7.3893L21.6449 5.86072L14.9782 0.23572L13.6885 1.7643ZM20.1648 6.07508L17.9426 9.45008L19.613 10.5499L21.8352 7.17494L20.1648 6.07508ZM19.2294 9.10782L17.0072 7.98282L16.1039 9.7672L18.3261 10.8922L19.2294 9.10782ZM15.5556 8.87501V19H17.5556V8.87501H15.5556ZM16.5556 18H5.44449V20H16.5556V18ZM6.44449 19V8.87501H4.44449V19H6.44449ZM4.99283 7.98282L2.7706 9.10782L3.67394 10.8922L5.89616 9.7672L4.99283 7.98282ZM4.05748 9.45008L1.83526 6.07508L0.164837 7.17494L2.38706 10.5499L4.05748 9.45008ZM1.64492 7.3893L8.31159 1.7643L7.02185 0.23572L0.355175 5.86072L1.64492 7.3893Z" fill="#40BFFF"/>
</svg>
