<svg width="18" height="18" viewBox="0 0 18 18" fill="none" xmlns="http://www.w3.org/2000/svg">
<path d="M14.175 7.9875C14.175 11.4048 11.4048 14.175 7.9875 14.175V15.975C12.3989 15.975 15.975 12.3989 15.975 7.9875H14.175ZM7.9875 14.175C4.57024 14.175 1.8 11.4048 1.8 7.9875H0C0 12.3989 3.57612 15.975 7.9875 15.975V14.175ZM1.8 7.9875C1.8 4.57024 4.57024 1.8 7.9875 1.8V0C3.57612 0 0 3.57612 0 7.9875H1.8ZM7.9875 1.8C11.4048 1.8 14.175 4.57024 14.175 7.9875H15.975C15.975 3.57612 12.3989 0 7.9875 0V1.8Z" fill="#40BFFF"/>
<path d="M13.6868 12.4136C13.3353 12.0622 12.7655 12.0622 12.414 12.4136C12.0625 12.7651 12.0625 13.3349 12.414 13.6864L13.6868 12.4136ZM16.464 17.7364C16.8155 18.0879 17.3853 18.0879 17.7368 17.7364C18.0883 17.3849 18.0883 16.8151 17.7368 16.4636L16.464 17.7364ZM12.414 13.6864L16.464 17.7364L17.7368 16.4636L13.6868 12.4136L12.414 13.6864Z" fill="#40BFFF"/>
</svg>
