<svg width="34" height="18" viewBox="0 0 34 18" fill="none" xmlns="http://www.w3.org/2000/svg">
<path d="M33.3939 0.428571H33.8875V0H33.3939V0.428571ZM33.3939 17.5714V18H33.8875V17.5714H33.3939ZM5.43052 0.857142H33.3939V0H5.43052V0.857142ZM32.9002 0.428571V17.5714H33.8875V0.428571H32.9002ZM33.3939 17.1428H5.43052V18H33.3939V17.1428ZM0.987368 13.2857V4.71428H0V13.2857H0.987368ZM5.43052 17.1428C2.97664 17.1428 0.987368 15.416 0.987368 13.2857H0C0 15.8894 2.43133 18 5.43052 18V17.1428ZM5.43052 0C2.43132 0 0 2.11065 0 4.71428H0.987368C0.987368 2.58404 2.97664 0.857142 5.43052 0.857142V0Z" fill="#EBF0FF"/>
<path d="M12.6397 8.57143C12.0943 8.57143 11.6523 8.95519 11.6523 9.42858C11.6523 9.90196 12.0943 10.2857 12.6397 10.2857V8.57143ZM22.2355 10.2857C22.7808 10.2857 23.223 9.90196 23.223 9.42858C23.223 8.95519 22.7808 8.57143 22.2355 8.57143V10.2857ZM12.6397 10.2857H22.2355V8.57143H12.6397V10.2857Z" fill="#9098B1"/>
</svg>
