<svg width="14" height="11" viewBox="0 0 14 11" fill="none" xmlns="http://www.w3.org/2000/svg">
<path d="M7.17862 0.0565822C7.06685 0.00822598 6.94425 -0.00960706 6.82333 0.00490293C6.70241 0.0194129 6.58752 0.0657462 6.49036 0.139174L3.20044 2.74083H0.688267C0.505727 2.74083 0.330663 2.81333 0.201588 2.94241C0.0725136 3.07148 0 3.24655 0 3.42909V7.55869C0 7.74122 0.0725136 7.91629 0.201588 8.04537C0.330663 8.17444 0.505727 8.24696 0.688267 8.24696H3.20044L6.45594 10.8486C6.57704 10.9457 6.72742 10.9991 6.88267 11C6.98548 11.0018 7.08712 10.9781 7.17862 10.9312C7.29574 10.8754 7.39472 10.7877 7.46413 10.6781C7.53355 10.5685 7.57057 10.4415 7.57093 10.3118V0.676022C7.57057 0.546293 7.53355 0.41931 7.46413 0.309712C7.39472 0.200114 7.29574 0.112365 7.17862 0.0565822ZM6.1944 8.88016L3.86806 7.02184C3.74696 6.92469 3.59658 6.87132 3.44133 6.87043H1.37653V4.11736H3.44133C3.59658 4.11646 3.74696 4.06309 3.86806 3.96593L6.1944 2.10761V8.88016ZM12.3269 5.49389L13.5657 4.26189C13.63 4.19772 13.6808 4.12154 13.7155 4.03769C13.7502 3.95384 13.7682 3.86397 13.7682 3.77323C13.7682 3.68247 13.7502 3.5926 13.7155 3.50876C13.6808 3.42491 13.63 3.34872 13.5657 3.28455C13.5015 3.22038 13.4253 3.16948 13.3415 3.13475C13.2577 3.10002 13.1678 3.08214 13.0771 3.08214C12.9864 3.08214 12.8964 3.10002 12.8126 3.13475C12.7288 3.16948 12.6526 3.22038 12.5884 3.28455L11.3564 4.52343L10.1244 3.28455C9.9948 3.15495 9.81902 3.08214 9.63573 3.08214C9.45245 3.08214 9.27667 3.15495 9.14706 3.28455C9.01746 3.41416 8.94465 3.58993 8.94465 3.77323C8.94465 3.95651 9.01746 4.13228 9.14706 4.26189L10.3859 5.49389L9.14706 6.72589C9.08255 6.78987 9.03135 6.866 8.99641 6.94987C8.96147 7.03373 8.94347 7.12369 8.94347 7.21456C8.94347 7.30542 8.96147 7.39537 8.99641 7.47924C9.03135 7.56311 9.08255 7.63924 9.14706 7.70322C9.21105 7.76774 9.28717 7.81893 9.37104 7.85388C9.45491 7.88883 9.54488 7.90681 9.63573 7.90681C9.72659 7.90681 9.81655 7.88883 9.90043 7.85388C9.9843 7.81893 10.0604 7.76774 10.1244 7.70322L11.3564 6.46434L12.5884 7.70322C12.6524 7.76774 12.7285 7.81893 12.8124 7.85388C12.8962 7.88883 12.9862 7.90681 13.0771 7.90681C13.168 7.90681 13.2579 7.88883 13.3418 7.85388C13.4256 7.81893 13.5017 7.76774 13.5657 7.70322C13.6303 7.63924 13.6815 7.56311 13.7164 7.47924C13.7514 7.39537 13.7693 7.30542 13.7693 7.21456C13.7693 7.12369 13.7514 7.03373 13.7164 6.94987C13.6815 6.866 13.6303 6.78987 13.5657 6.72589L12.3269 5.49389Z" fill="#75839D"/>
</svg>
