<svg width="18" height="17" viewBox="0 0 18 17" fill="none" xmlns="http://www.w3.org/2000/svg">
<path d="M4.55605 4.67636C4.83565 4.67636 5.0623 4.467 5.0623 4.20873C5.0623 3.95046 4.83565 3.74109 4.55605 3.74109C4.27646 3.74109 4.0498 3.95046 4.0498 4.20873C4.0498 4.467 4.27646 4.67636 4.55605 4.67636Z" fill="#9098B1" stroke="#9098B1" stroke-width="2" stroke-linecap="round" stroke-linejoin="round"/>
<path d="M17.1 9.15406L17.733 9.7515C17.9039 9.59368 18 9.37854 18 9.15406C18 8.9296 17.9039 8.71447 17.733 8.55661L17.1 9.15406ZM9.90009 15.8048L9.26717 16.4023C9.61783 16.7262 10.1824 16.7262 10.5331 16.4023L9.90009 15.8048ZM0.9 7.49114H0C0 7.7156 0.0961623 7.93073 0.267053 8.08859L0.9 7.49114ZM0.9 0.840393V0C0.402943 0 0 0.376257 0 0.840393H0.9ZM8.09989 0.840393L8.73283 0.242942C8.56434 0.0872984 8.3369 0 8.09989 0V0.840393ZM16.467 8.55661L9.26717 15.2073L10.5331 16.4023L17.733 9.7515L16.467 8.55661ZM10.5331 15.2073L1.53295 6.89369L0.267053 8.08859L9.26717 16.4023L10.5331 15.2073ZM1.8 7.49114V0.840393H0V7.49114H1.8ZM0.9 1.68079H8.09989V0H0.9V1.68079ZM7.46694 1.43784L16.467 9.7515L17.733 8.55661L8.73283 0.242942L7.46694 1.43784Z" fill="#9098B1"/>
</svg>
