<svg width="18" height="18" viewBox="0 0 18 18" fill="none" xmlns="http://www.w3.org/2000/svg">
<path d="M0.9 3.7593V2.8593C0.402943 2.8593 0 3.26224 0 3.7593H0.9ZM17.1 3.7593H18C18 3.26224 17.5971 2.8593 17.1 2.8593V3.7593ZM17.1 17.1V18C17.5971 18 18 17.5971 18 17.1H17.1ZM0.9 17.1H0C0 17.5971 0.402943 18 0.9 18V17.1ZM0.9 4.6593H17.1V2.8593H0.9V4.6593ZM16.2 3.7593V17.1H18V3.7593H16.2ZM17.1 16.2H0.9V18H17.1V16.2ZM1.8 17.1V3.7593H0V17.1H1.8Z" fill="#40BFFF"/>
<path d="M17.1 3.7593V4.6593C17.4319 4.6593 17.7368 4.47664 17.8934 4.18404C18.0501 3.89143 18.0329 3.53637 17.8489 3.2602L17.1 3.7593ZM0.900004 3.7593L0.151077 3.2602C-0.0329814 3.53637 -0.0500994 3.89143 0.106531 4.18404C0.26316 4.47664 0.568114 4.6593 0.900004 4.6593V3.7593ZM2.80553 0.9V0C2.50456 0 2.22351 0.150443 2.0566 0.400892L2.80553 0.9ZM15.1944 0.9L15.9434 0.400892C15.7765 0.150443 15.4955 0 15.1944 0V0.9ZM17.1 2.8593H0.900004V4.6593H17.1V2.8593ZM1.64893 4.2584L3.55445 1.39911L2.0566 0.400892L0.151077 3.2602L1.64893 4.2584ZM2.80553 1.8H15.1944V0H2.80553V1.8ZM14.4455 1.39911L16.3511 4.2584L17.8489 3.2602L15.9434 0.400892L14.4455 1.39911Z" fill="#40BFFF"/>
<path d="M12.0449 7.8093C12.0449 7.31225 11.642 6.9093 11.1449 6.9093C10.6479 6.9093 10.2449 7.31225 10.2449 7.8093H12.0449ZM7.75801 7.8093C7.75801 7.31225 7.35506 6.9093 6.85801 6.9093C6.36095 6.9093 5.95801 7.31225 5.95801 7.8093H7.75801ZM10.2449 7.8093C10.2449 8.49586 9.68803 9.05276 9.00147 9.05276V10.8528C10.6821 10.8528 12.0449 9.48997 12.0449 7.8093H10.2449ZM9.00147 9.05276C8.31492 9.05276 7.75801 8.49586 7.75801 7.8093H5.95801C5.95801 9.48997 7.3208 10.8528 9.00147 10.8528V9.05276Z" fill="#40BFFF"/>
</svg>
