<svg width="18" height="18" viewBox="0 0 18 18" fill="none" xmlns="http://www.w3.org/2000/svg">
<path d="M5.56875 16.6452C5.84834 16.6452 6.075 16.4123 6.075 16.125C6.075 15.8377 5.84834 15.6049 5.56875 15.6049C5.28916 15.6049 5.0625 15.8377 5.0625 16.125C5.0625 16.4123 5.28916 16.6452 5.56875 16.6452Z" fill="#9098B1" stroke="#9098B1" stroke-width="2" stroke-linecap="round" stroke-linejoin="round"/>
<path d="M12.6562 16.6452C12.9357 16.6452 13.1624 16.4123 13.1624 16.125C13.1624 15.8377 12.9357 15.6049 12.6562 15.6049C12.3766 15.6049 12.1499 15.8377 12.1499 16.125C12.1499 16.4123 12.3766 16.6452 12.6562 16.6452Z" fill="#9098B1" stroke="#9098B1" stroke-width="2" stroke-linecap="round" stroke-linejoin="round"/>
<path d="M0.899999 0C0.402943 0 0 0.418522 0 0.934795C0 1.45107 0.402943 1.86959 0.899999 1.86959V0ZM2.925 0.934795L3.81248 0.779491C3.73949 0.329491 3.36435 0 2.925 0V0.934795ZM4.94999 13.4188L4.0625 13.5742C4.13549 14.0242 4.51064 14.3536 4.94999 14.3536V13.4188ZM15.075 13.4188V14.3536C15.496 14.3536 15.8608 14.0504 15.9531 13.6237L15.075 13.4188ZM17.1 4.0558L17.9781 4.26068C18.038 3.98367 17.9734 3.69338 17.8027 3.47172C17.6319 3.25004 17.3733 3.12101 17.1 3.12101V4.0558ZM3.93749 3.12101C3.44044 3.12101 3.0375 3.53953 3.0375 4.0558C3.0375 4.57207 3.44044 4.9906 3.93749 4.9906V3.12101ZM0.899999 1.86959H2.925V0H0.899999V1.86959ZM2.03751 1.0901L4.0625 13.5742L5.83748 13.2635L3.81248 0.779491L2.03751 1.0901ZM4.94999 14.3536H15.075V12.484H4.94999V14.3536ZM15.9531 13.6237L17.9781 4.26068L16.2218 3.85092L14.1968 13.214L15.9531 13.6237ZM17.1 3.12101H3.93749V4.9906H17.1V3.12101Z" fill="#9098B1"/>
</svg>
