<svg width="18" height="17" viewBox="0 0 18 17" fill="none" xmlns="http://www.w3.org/2000/svg">
<path d="M0.363795 5.77717C-0.0353911 6.05372 -0.118902 6.58008 0.17727 6.95284C0.473437 7.32559 1.03713 7.40357 1.43631 7.12701L0.363795 5.77717ZM9 0.840396L9.53626 0.165474C9.21778 -0.0551579 8.78221 -0.0551579 8.46373 0.165474L9 0.840396ZM16.5637 7.12701C16.9629 7.40357 17.5265 7.32559 17.8227 6.95284C18.1189 6.58008 18.0354 6.05372 17.6362 5.77717L16.5637 7.12701ZM1.43631 7.12701L9.53626 1.51532L8.46373 0.165474L0.363795 5.77717L1.43631 7.12701ZM8.46373 1.51532L16.5637 7.12701L17.6362 5.77717L9.53626 0.165474L8.46373 1.51532Z" fill="#40BFFF"/>
<path d="M17.9999 6.45197C17.9999 5.98783 17.5969 5.61157 17.0999 5.61157C16.6028 5.61157 16.1999 5.98783 16.1999 6.45197H17.9999ZM17.0999 15.8048V16.6452C17.5969 16.6452 17.9999 16.2689 17.9999 15.8048H17.0999ZM0.899994 15.8048H0C0 16.2689 0.402941 16.6452 0.899994 16.6452V15.8048ZM1.79999 6.45197C1.79999 5.98783 1.39705 5.61157 0.899994 5.61157C0.402941 5.61157 0 5.98783 0 6.45197H1.79999ZM16.1999 6.45197V15.8048H17.9999V6.45197H16.1999ZM17.0999 14.9644H0.899994V16.6452H17.0999V14.9644ZM1.79999 15.8048V6.45197H0V15.8048H1.79999Z" fill="#40BFFF"/>
<path d="M6.97519 10.1931V9.35266C6.47814 9.35266 6.0752 9.72892 6.0752 10.1931H6.97519ZM11.0252 10.1931H11.9252C11.9252 9.72892 11.5222 9.35266 11.0252 9.35266V10.1931ZM11.0252 15.8047V16.6451C11.5222 16.6451 11.9252 16.2689 11.9252 15.8047H11.0252ZM6.97519 15.8047H6.0752C6.0752 16.2689 6.47814 16.6451 6.97519 16.6451V15.8047ZM6.97519 11.0335H11.0252V9.35266H6.97519V11.0335ZM10.1252 10.1931V15.8047H11.9252V10.1931H10.1252ZM11.0252 14.9643H6.97519V16.6451H11.0252V14.9643ZM7.87518 15.8047V10.1931H6.0752V15.8047H7.87518Z" fill="#40BFFF"/>
</svg>
