<svg width="18" height="14" viewBox="0 0 18 14" fill="none" xmlns="http://www.w3.org/2000/svg">
<path d="M0.9 0.870968V0C0.402943 0 0 0.389945 0 0.870968H0.9ZM17.1 0.870968H18C18 0.389945 17.5971 0 17.1 0V0.870968ZM17.1 12.629V13.5C17.5971 13.5 18 13.1101 18 12.629H17.1ZM0.9 12.629H0C0 13.1101 0.402943 13.5 0.9 13.5V12.629ZM0.9 1.74194H17.1V0H0.9V1.74194ZM16.2 0.870968V12.629H18V0.870968H16.2ZM17.1 11.7581H0.9V13.5H17.1V11.7581ZM1.8 12.629V0.870968H0V12.629H1.8Z" fill="#40BFFF"/>
<path d="M0.9 3.91936C0.402943 3.91936 0 4.3093 0 4.79033C0 5.27135 0.402943 5.66129 0.9 5.66129V3.91936ZM17.1 5.66129C17.5971 5.66129 18 5.27135 18 4.79033C18 4.3093 17.5971 3.91936 17.1 3.91936V5.66129ZM0.9 5.66129H17.1V3.91936H0.9V5.66129Z" fill="#40BFFF"/>
</svg>
