<svg width="20" height="20" viewBox="0 0 20 20" fill="none" xmlns="http://www.w3.org/2000/svg">
<path d="M6.62498 1.00007L7.51941 0.552861C7.31774 0.14952 6.87106 -0.0689433 6.42886 0.0194954L6.62498 1.00007ZM13.375 1.00007L13.5711 0.0194954C13.1289 -0.0689433 12.6822 0.14952 12.4806 0.552861L13.375 1.00007ZM18.9999 2.12507L19.97 2.36761C20.0364 2.1023 19.9911 1.82141 19.8449 1.59032C19.6987 1.35924 19.4642 1.19812 19.196 1.14449L18.9999 2.12507ZM17.8749 6.62506V7.62505C18.3338 7.62505 18.7338 7.31275 18.845 6.8676L17.8749 6.62506ZM15.625 6.62506V5.62506C15.2784 5.62506 14.9566 5.80451 14.7743 6.09933C14.5921 6.39415 14.5756 6.76229 14.7306 7.07227L15.625 6.62506ZM15.625 14.5L14.6319 14.3831L14.6318 14.3832L15.625 14.5ZM15.625 19V20C15.923 20 16.2056 19.8671 16.3955 19.6374C16.5855 19.4077 16.6631 19.1053 16.6073 18.8126L15.625 19ZM4.37499 19L3.39131 18.8201C3.33792 19.1119 3.4169 19.4124 3.6069 19.6403C3.79689 19.8682 4.07828 20 4.37499 20V19ZM4.37499 14.5L5.36809 14.3828L5.36808 14.3826L4.37499 14.5ZM4.37499 6.62506L5.26942 7.07227C5.42441 6.76229 5.40785 6.39415 5.22564 6.09933C5.04343 5.80451 4.72157 5.62506 4.37499 5.62506V6.62506ZM2.125 6.62506L1.15486 6.8676C1.26615 7.31275 1.66613 7.62505 2.125 7.62505V6.62506ZM1 2.12507L0.803886 1.14449C0.535727 1.19812 0.301231 1.35924 0.154993 1.59032C0.00875514 1.82141 -0.0364657 2.1023 0.0298621 2.36761L1 2.12507ZM6.62498 1.00007C5.73056 1.44729 5.73074 1.44764 5.73093 1.44801C5.73099 1.44815 5.73118 1.44852 5.73132 1.44879C5.73159 1.44933 5.73187 1.4499 5.73218 1.45051C5.73279 1.45172 5.73348 1.45308 5.73424 1.45457C5.73575 1.45755 5.73756 1.46109 5.73967 1.46517C5.74387 1.47332 5.74926 1.48362 5.75582 1.49593C5.76894 1.52053 5.78682 1.55324 5.80948 1.59289C5.85472 1.67206 5.91945 1.77969 6.00388 1.90633C6.17161 2.15792 6.42316 2.49372 6.76162 2.83218C7.43312 3.50367 8.51622 4.25006 9.99997 4.25006V2.25007C9.23374 2.25007 8.62934 1.87147 8.17584 1.41797C7.9518 1.19393 7.78149 0.967219 7.66797 0.796936C7.61177 0.712638 7.57103 0.644494 7.54596 0.600616C7.53346 0.578743 7.52497 0.56311 7.52052 0.554755C7.51829 0.550585 7.51708 0.548251 7.5169 0.547887C7.5168 0.547705 7.51696 0.548017 7.51738 0.54884C7.51759 0.549252 7.51787 0.549791 7.5182 0.550461C7.51837 0.550796 7.51856 0.551163 7.51876 0.551563C7.51886 0.551763 7.51902 0.552088 7.51907 0.552187C7.51924 0.55252 7.51941 0.552861 6.62498 1.00007ZM9.99997 4.25006C11.4838 4.25006 12.5669 3.50367 13.2384 2.83218C13.5768 2.49372 13.8284 2.15792 13.9961 1.90633C14.0805 1.77969 14.1453 1.67206 14.1905 1.59289C14.2132 1.55324 14.231 1.52053 14.2442 1.49593C14.2507 1.48362 14.2561 1.47332 14.2603 1.46517C14.2624 1.46109 14.2642 1.45755 14.2658 1.45457C14.2665 1.45308 14.2672 1.45172 14.2678 1.45051C14.2681 1.4499 14.2684 1.44933 14.2687 1.44879C14.2688 1.44852 14.269 1.44815 14.2691 1.44801C14.2692 1.44764 14.2694 1.44729 13.375 1.00007C12.4806 0.552861 12.4807 0.55252 12.4809 0.552187C12.481 0.552088 12.4811 0.551763 12.4812 0.551563C12.4814 0.551163 12.4816 0.550796 12.4818 0.550461C12.4821 0.549791 12.4824 0.549252 12.4826 0.54884C12.483 0.548017 12.4832 0.547705 12.4831 0.547887C12.4829 0.548251 12.4817 0.550585 12.4795 0.554755C12.475 0.56311 12.4665 0.578743 12.454 0.600616C12.4289 0.644494 12.3882 0.712638 12.332 0.796936C12.2185 0.967219 12.0482 1.19393 11.8241 1.41797C11.3706 1.87147 10.7662 2.25007 9.99997 2.25007V4.25006ZM13.1789 1.98065L18.8038 3.10565L19.196 1.14449L13.5711 0.0194954L13.1789 1.98065ZM18.0298 1.88253L16.9049 6.38252L18.845 6.8676L19.97 2.36761L18.0298 1.88253ZM17.8749 5.62506H15.625V7.62505H17.8749V5.62506ZM15.625 6.62506C14.7306 7.07226 14.7305 7.07218 14.7305 7.07211C14.7305 7.0721 14.7305 7.07204 14.7304 7.07202C14.7304 7.07197 14.7304 7.07196 14.7304 7.07198C14.7304 7.07202 14.7305 7.07218 14.7307 7.07248C14.731 7.07309 14.7316 7.07423 14.7324 7.07588C14.734 7.07919 14.7367 7.08458 14.7403 7.09191C14.7475 7.1066 14.7585 7.12913 14.7728 7.15868C14.8013 7.21782 14.8428 7.30484 14.8928 7.41325C14.9932 7.63081 15.1265 7.93079 15.259 8.26207C15.3924 8.59543 15.5199 8.94791 15.6127 9.27282C15.7099 9.61295 15.75 9.85854 15.75 10H17.7499C17.7499 9.57906 17.6494 9.12152 17.5357 8.72338C17.4176 8.31 17.2639 7.88904 17.116 7.51928C16.9672 7.14743 16.8193 6.81461 16.7087 6.57514C16.6533 6.45504 16.6069 6.35749 16.5739 6.28919C16.5574 6.25502 16.5442 6.2281 16.535 6.20928C16.5304 6.19987 16.5267 6.19248 16.5241 6.1872C16.5228 6.18457 16.5217 6.18246 16.5209 6.1809C16.5206 6.18012 16.5202 6.17947 16.52 6.17896C16.5199 6.17871 16.5197 6.17849 16.5197 6.1783C16.5196 6.17821 16.5196 6.17809 16.5195 6.17805C16.5195 6.17794 16.5194 6.17785 15.625 6.62506ZM15.75 10C15.75 10.1125 15.721 10.3042 15.6381 10.6107C15.5573 10.9096 15.4461 11.2462 15.3151 11.6468C15.0632 12.4169 14.7493 13.3854 14.6319 14.3831L16.6181 14.6169C16.7089 13.8461 16.9574 13.059 17.216 12.2685C17.3402 11.8887 17.4711 11.4938 17.5688 11.1325C17.6644 10.779 17.7499 10.3821 17.7499 10H15.75ZM14.6318 14.3832C14.4609 15.8374 14.46 17.0194 14.5036 17.8467C14.5254 18.2605 14.5583 18.5859 14.5867 18.8126C14.6009 18.926 14.614 19.0148 14.6239 19.0777C14.6289 19.1091 14.6332 19.1341 14.6364 19.1524C14.638 19.1616 14.6393 19.1691 14.6404 19.175C14.6409 19.1779 14.6414 19.1804 14.6418 19.1825C14.642 19.1835 14.6422 19.1844 14.6423 19.1853C14.6424 19.1857 14.6425 19.1861 14.6425 19.1864C14.6426 19.1866 14.6426 19.1869 14.6426 19.187C14.6427 19.1872 14.6427 19.1874 15.625 19C16.6073 18.8126 16.6073 18.8128 16.6074 18.813C16.6074 18.8131 16.6074 18.8133 16.6074 18.8134C16.6075 18.8137 16.6075 18.8139 16.6076 18.8141C16.6076 18.8145 16.6077 18.8148 16.6077 18.815C16.6078 18.8154 16.6078 18.8154 16.6077 18.815C16.6076 18.8142 16.6071 18.8118 16.6064 18.8077C16.605 18.7995 16.6025 18.7849 16.5992 18.764C16.5926 18.7222 16.5826 18.6552 16.5712 18.5642C16.5484 18.3823 16.52 18.1047 16.5009 17.7415C16.4626 17.015 16.4618 15.947 16.6182 14.6168L14.6318 14.3832ZM15.625 18H4.37499V20H15.625V18ZM4.37499 19C5.35867 19.1799 5.35871 19.1797 5.35875 19.1795C5.35877 19.1794 5.35881 19.1792 5.35884 19.179C5.3589 19.1786 5.35897 19.1783 5.35904 19.1779C5.35919 19.1771 5.35935 19.1762 5.35953 19.1752C5.3599 19.1731 5.36033 19.1707 5.36084 19.1678C5.36185 19.162 5.36315 19.1545 5.36469 19.1453C5.36779 19.1269 5.37188 19.1018 5.37674 19.07C5.38646 19.0064 5.39923 18.9165 5.41314 18.8017C5.44094 18.5722 5.4733 18.2431 5.49474 17.827C5.53761 16.9952 5.53697 15.8133 5.36809 14.3828L3.38189 14.6172C3.53588 15.9216 3.53524 16.9897 3.49739 17.7241C3.47848 18.0912 3.4503 18.3743 3.42765 18.5612C3.41633 18.6546 3.4064 18.724 3.39973 18.7676C3.39639 18.7895 3.39386 18.8049 3.39238 18.8137C3.39164 18.8181 3.39116 18.8208 3.39097 18.8219C3.39088 18.8225 3.39086 18.8226 3.39091 18.8223C3.39094 18.8221 3.39099 18.8218 3.39105 18.8215C3.39109 18.8213 3.39112 18.8211 3.39117 18.8209C3.39119 18.8207 3.39122 18.8205 3.39124 18.8205C3.39127 18.8203 3.39131 18.8201 4.37499 19ZM5.36808 14.3826C5.24545 13.345 4.93401 12.362 4.68105 11.5855C4.54976 11.1824 4.4394 10.8513 4.35877 10.5596C4.27537 10.258 4.24999 10.0866 4.24999 10H2.25C2.25 10.3686 2.33782 10.7552 2.43108 11.0925C2.52712 11.4399 2.65687 11.8288 2.77941 12.2049C3.03409 12.9868 3.28516 13.7988 3.3819 14.6174L5.36808 14.3826ZM4.24999 10C4.24999 9.85854 4.29011 9.61295 4.3873 9.27282C4.48013 8.94791 4.60762 8.59543 4.74097 8.26207C4.87348 7.93079 5.00675 7.63081 5.10717 7.41325C5.1572 7.30484 5.19865 7.21782 5.2272 7.15868C5.24147 7.12913 5.25248 7.1066 5.25971 7.09191C5.26332 7.08458 5.26598 7.07919 5.26762 7.07588C5.26844 7.07423 5.26901 7.07309 5.26931 7.07248C5.26946 7.07218 5.26955 7.07202 5.26956 7.07198C5.26957 7.07196 5.26957 7.07197 5.26954 7.07202C5.26953 7.07204 5.2695 7.0721 5.26949 7.07211C5.26946 7.07218 5.26942 7.07226 4.37499 6.62506C3.48056 6.17785 3.48051 6.17794 3.48046 6.17805C3.48044 6.17809 3.48038 6.17821 3.48034 6.1783C3.48024 6.17849 3.48013 6.17871 3.48001 6.17896C3.47975 6.17947 3.47943 6.18012 3.47904 6.1809C3.47826 6.18246 3.47721 6.18457 3.47591 6.1872C3.47329 6.19248 3.46963 6.19987 3.46501 6.20928C3.45575 6.2281 3.4426 6.25502 3.4261 6.28919C3.39313 6.35749 3.34668 6.45504 3.29125 6.57514C3.18073 6.81461 3.03275 7.14743 2.88402 7.51928C2.73612 7.88904 2.58236 8.31 2.46426 8.72338C2.3505 9.12152 2.25 9.57906 2.25 10H4.24999ZM4.37499 5.62506H2.125V7.62505H4.37499V5.62506ZM3.09513 6.38252L1.97014 1.88253L0.0298621 2.36761L1.15486 6.8676L3.09513 6.38252ZM1.19612 3.10565L6.8211 1.98065L6.42886 0.0194954L0.803886 1.14449L1.19612 3.10565Z" fill="#40BFFF"/>
</svg>
