<svg width="18" height="18" viewBox="0 0 18 18" fill="none" xmlns="http://www.w3.org/2000/svg">
<path d="M17.1 17.1V18C17.3646 18 17.6157 17.8836 17.7867 17.6817C17.9577 17.4799 18.0312 17.213 17.9878 16.952L17.1 17.1ZM0.900007 17.1L0.0122524 16.952C-0.0312409 17.213 0.0422863 17.4799 0.213289 17.6817C0.384292 17.8836 0.63545 18 0.900007 18V17.1ZM17.1 16.2H0.900007V18H17.1V16.2ZM1.78776 17.2479L3.43674 7.35407L1.66123 7.05815L0.0122524 16.952L1.78776 17.2479ZM5.21225 5.84999H12.7877V4.04999H5.21225V5.84999ZM14.5633 7.35407L16.2122 17.2479L17.9878 16.952L16.3388 7.05815L14.5633 7.35407ZM12.7877 5.84999C13.6677 5.84999 14.4186 6.48613 14.5633 7.35407L16.3388 7.05815C16.0494 5.32227 14.5476 4.04999 12.7877 4.04999V5.84999ZM3.43674 7.35407C3.58139 6.48613 4.33233 5.84999 5.21225 5.84999V4.04999C3.45243 4.04999 1.95054 5.32227 1.66123 7.05815L3.43674 7.35407Z" fill="#40BFFF"/>
<path d="M2.93428 7.9735C2.43725 7.96832 2.03013 8.36705 2.02495 8.86408C2.01977 9.36111 2.4185 9.76822 2.91553 9.7734L2.93428 7.9735ZM15.0655 9.89996C15.5625 9.90514 15.9697 9.50642 15.9748 9.00939C15.98 8.51236 15.5813 8.10524 15.0843 8.10006L15.0655 9.89996ZM2.91553 9.7734L15.0655 9.89996L15.0843 8.10006L2.93428 7.9735L2.91553 9.7734Z" fill="#40BFFF"/>
<path d="M4.5 4.02154C4.5 4.51859 4.90294 4.92154 5.4 4.92154C5.89706 4.92154 6.3 4.51859 6.3 4.02154H4.5ZM11.7 4.05C11.7 4.54705 12.1029 4.95 12.6 4.95C13.0971 4.95 13.5 4.54705 13.5 4.05H11.7ZM6.3 4.02154V3.9375H4.5V4.02154H6.3ZM6.3 3.9375C6.3 2.75684 7.25684 1.8 8.4375 1.8V0C6.26273 0 4.5 1.76273 4.5 3.9375H6.3ZM8.4375 1.8H9.74565V0H8.4375V1.8ZM9.74565 1.8C10.6746 1.8 11.7 2.78718 11.7 4.05H13.5C13.5 1.95739 11.8254 0 9.74565 0V1.8Z" fill="#40BFFF"/>
</svg>
