<svg width="15" height="20" viewBox="0 0 15 20" fill="none" xmlns="http://www.w3.org/2000/svg">
<path d="M2.53677 0.909091V0C2.08137 0 1.70078 0.357081 1.65827 0.824236L2.53677 0.909091ZM12.4633 0.909091L13.3417 0.824236C13.2993 0.357081 12.9186 0 12.4633 0V0.909091ZM14.1177 19.0909V20C14.366 20 14.6029 19.8922 14.7701 19.703C14.9373 19.5138 15.0193 19.2608 14.9961 19.0061L14.1177 19.0909ZM10.8088 19.0909L9.96372 19.3521C10.0757 19.7366 10.4192 20 10.8088 20V19.0909ZM7.50001 7.72727L8.34516 7.46605C8.23319 7.08152 7.88967 6.81818 7.50001 6.81818C7.11035 6.81818 6.76684 7.08152 6.65487 7.46605L7.50001 7.72727ZM4.19118 19.0909V20C4.58084 20 4.92436 19.7366 5.03633 19.3521L4.19118 19.0909ZM0.882358 19.0909L0.00385676 19.0061C-0.019328 19.2608 0.0627645 19.5138 0.22997 19.703C0.397177 19.8922 0.634019 20 0.882358 20V19.0909ZM2.53677 1.81818H12.4633V0H2.53677V1.81818ZM11.5848 0.993946L13.2392 19.1757L14.9961 19.0061L13.3417 0.824236L11.5848 0.993946ZM14.1177 18.1818H10.8088V20H14.1177V18.1818ZM11.654 18.8297L8.34516 7.46605L6.65487 7.9885L9.96372 19.3521L11.654 18.8297ZM6.65487 7.46605L3.34604 18.8297L5.03633 19.3521L8.34516 7.9885L6.65487 7.46605ZM4.19118 18.1818H0.882358V20H4.19118V18.1818ZM1.76086 19.1757L3.41527 0.993946L1.65827 0.824236L0.00385676 19.0061L1.76086 19.1757Z" fill="#40BFFF"/>
<path d="M2.647 3.63635C2.15969 3.63635 1.76465 4.04337 1.76465 4.54544C1.76465 5.04752 2.15969 5.45453 2.647 5.45453L2.647 3.63635ZM12.3529 5.45454C12.8402 5.45454 13.2352 5.04752 13.2352 4.54544C13.2352 4.04337 12.8402 3.63635 12.3529 3.63635L12.3529 5.45454ZM2.647 5.45453L12.3529 5.45454L12.3529 3.63635L2.647 3.63635L2.647 5.45453Z" fill="#40BFFF"/>
</svg>
