<svg width="18" height="18" viewBox="0 0 18 18" fill="none" xmlns="http://www.w3.org/2000/svg">
<path d="M0.899979 4.94999V4.04999C0.402934 4.04999 0 4.45293 0 4.94999H0.899979ZM17.0996 4.94999H17.9996C17.9996 4.45293 17.5967 4.04999 17.0996 4.04999V4.94999ZM17.0996 17.1V18C17.5967 18 17.9996 17.5971 17.9996 17.1H17.0996ZM0.899979 17.1H0C0 17.5971 0.402934 18 0.899979 18V17.1ZM0.899979 5.84999H17.0996V4.04999H0.899979V5.84999ZM16.1996 4.94999V17.1H17.9996V4.94999H16.1996ZM17.0996 16.2H0.899979V18H17.0996V16.2ZM1.79996 17.1V4.94999H0V17.1H1.79996Z" fill="#40BFFF"/>
<path d="M1.13125 9.01632C0.650861 8.88871 0.157988 9.17471 0.0303852 9.6551C-0.0972184 10.1355 0.18877 10.6284 0.669156 10.756L1.13125 9.01632ZM9.00002 12.0377L8.76897 12.9076C8.91606 12.9466 9.07065 12.9478 9.2183 12.9108L9.00002 12.0377ZM17.3181 10.8858C17.8003 10.7653 18.0935 10.2766 17.9729 9.79443C17.8524 9.31222 17.3638 9.01903 16.8816 9.13959L17.3181 10.8858ZM0.669156 10.756L8.76897 12.9076L9.23106 11.1679L1.13125 9.01632L0.669156 10.756ZM9.2183 12.9108L17.3181 10.8858L16.8816 9.13959L8.78174 11.1646L9.2183 12.9108Z" fill="#40BFFF"/>
<path d="M4.76562 4.02154C4.76562 4.51859 5.16856 4.92154 5.6656 4.92154C6.16265 4.92154 6.56558 4.51859 6.56558 4.02154H4.76562ZM5.6656 0.9V0C5.16856 0 4.76562 0.402943 4.76562 0.9H5.6656ZM13.0486 0.9H13.9486C13.9486 0.402943 13.5456 0 13.0486 0V0.9ZM12.1486 3.9375C12.1486 4.43455 12.5515 4.8375 13.0486 4.8375C13.5456 4.8375 13.9486 4.43455 13.9486 3.9375H12.1486ZM6.56558 4.02154V0.9H4.76562V4.02154H6.56558ZM5.6656 1.8H13.0486V0H5.6656V1.8ZM12.1486 0.9V3.9375H13.9486V0.9H12.1486Z" fill="#40BFFF"/>
<path d="M8.99617 7.76251C8.49913 7.76251 8.09619 8.16546 8.09619 8.66251C8.09619 9.15957 8.49913 9.56251 8.99617 9.56251V7.76251ZM9.0063 9.56251C9.50334 9.56251 9.90628 9.15957 9.90628 8.66251C9.90628 8.16546 9.50334 7.76251 9.0063 7.76251V9.56251ZM8.99617 9.56251H9.0063V7.76251H8.99617V9.56251Z" fill="#40BFFF"/>
</svg>
