<svg width="18" height="18" viewBox="0 0 18 18" fill="none" xmlns="http://www.w3.org/2000/svg">
<path d="M4.5563 5.06249C4.83589 5.06249 5.06255 4.83583 5.06255 4.55624C5.06255 4.27664 4.83589 4.04999 4.5563 4.04999C4.27671 4.04999 4.05005 4.27664 4.05005 4.55624C4.05005 4.83583 4.27671 5.06249 4.5563 5.06249Z" fill="#40BFFF" stroke="#40BFFF" stroke-width="2" stroke-linecap="round" stroke-linejoin="round"/>
<path d="M17.1 9.9001L17.7364 10.5365C18.0879 10.185 18.0879 9.6152 17.7364 9.26373L17.1 9.9001ZM9.9001 17.1L9.26373 17.7364C9.6152 18.0879 10.185 18.0879 10.5365 17.7364L9.9001 17.1ZM0.900001 8.0999H0C0 8.33859 0.0948214 8.56752 0.263604 8.73629L0.900001 8.0999ZM0.900001 0.900001V0C0.402944 0 0 0.402944 0 0.900001H0.900001ZM8.0999 0.900001L8.73629 0.263604C8.56752 0.0948214 8.33859 0 8.0999 0V0.900001ZM16.4636 9.26373L9.26373 16.4636L10.5365 17.7364L17.7364 10.5365L16.4636 9.26373ZM10.5365 16.4636L1.5364 7.4635L0.263604 8.73629L9.26373 17.7364L10.5365 16.4636ZM1.8 8.0999V0.900001H0V8.0999H1.8ZM0.900001 1.8H8.0999V0H0.900001V1.8ZM7.4635 1.5364L16.4636 10.5365L17.7364 9.26373L8.73629 0.263604L7.4635 1.5364Z" fill="#40BFFF"/>
</svg>
