<svg width="34" height="18" viewBox="0 0 34 18" fill="none" xmlns="http://www.w3.org/2000/svg">
<path d="M0.493684 0.428571V0H0V0.428571H0.493684ZM0.493684 17.5714H0V18H0.493684V17.5714ZM0.493684 0.857142H28.457V0H0.493684V0.857142ZM32.9002 4.71428V13.2857H33.8875V4.71428H32.9002ZM28.457 17.1428H0.493684V18H28.457V17.1428ZM0.987368 17.5714V0.428571H0V17.5714H0.987368ZM32.9002 13.2857C32.9002 15.416 30.9109 17.1428 28.457 17.1428V18C31.4563 18 33.8875 15.8894 33.8875 13.2857H32.9002ZM28.457 0.857142C30.9109 0.857142 32.9002 2.58404 32.9002 4.71428H33.8875C33.8875 2.11065 31.4563 0 28.457 0V0.857142Z" fill="#EBF0FF"/>
<path d="M17.2691 5.91989C17.2691 5.54333 16.9025 5.23807 16.4502 5.23807C15.998 5.23807 15.6314 5.54333 15.6314 5.91989H17.2691ZM15.6314 11.223C15.6314 11.5995 15.998 11.9048 16.4502 11.9048C16.9025 11.9048 17.2691 11.5995 17.2691 11.223H15.6314ZM15.6314 5.91989V11.223H17.2691V5.91989H15.6314Z" fill="#9098B1"/>
<path d="M12.4711 7.88963C12.0189 7.88963 11.6523 8.19489 11.6523 8.57145C11.6523 8.94801 12.0189 9.25327 12.4711 9.25327V7.88963ZM20.4293 9.25327C20.8815 9.25327 21.2481 8.94801 21.2481 8.57145C21.2481 8.19489 20.8815 7.88963 20.4293 7.88963V9.25327ZM12.4711 9.25327H20.4293V7.88963H12.4711V9.25327Z" fill="#9098B1"/>
</svg>
